<?xml version="1.0" encoding="UTF-8"?>
<svg version="1.1" xmlns="http://www.w3.org/2000/svg" width="512" height="512">
<path d="M0 0 C1.01790619 0.00215515 2.03581238 0.0043103 3.08456421 0.00653076 C17.69363523 0.05620146 32.02575853 0.30709809 46.375 3.3125 C47.34985352 3.51117676 48.32470703 3.70985352 49.32910156 3.91455078 C97.7109774 14.03517194 141.69928269 35.9516877 177.375 70.3125 C178.3640332 71.26068604 178.3640332 71.26068604 179.37304688 72.22802734 C188.86130305 81.37247479 197.6012044 90.66984009 205.375 101.3125 C206.23306152 102.46355017 207.09113451 103.61459177 207.94921875 104.765625 C213.98736829 112.95680614 219.34595521 121.47054105 224.375 130.3125 C224.73948242 130.94430176 225.10396484 131.57610352 225.47949219 132.22705078 C247.08534998 169.97532572 256.85198095 212.74189997 256.6875 255.9375 C256.68534485 256.95540619 256.6831897 257.97331238 256.68096924 259.02206421 C256.63129854 273.63113523 256.38040191 287.96325853 253.375 302.3125 C253.07698486 303.77478027 253.07698486 303.77478027 252.77294922 305.26660156 C243.72170074 348.53631524 225.33729329 388.73769334 196.375 422.3125 C195.74078125 423.05757813 195.1065625 423.80265625 194.453125 424.5703125 C182.64198485 438.07529833 169.89139772 450.74668743 155.375 461.3125 C154.22505169 462.16899066 153.07531411 463.02576433 151.92578125 463.8828125 C143.73565742 469.92284209 135.23120382 475.30617614 126.375 480.3125 C125.66778809 480.7146875 124.96057617 481.116875 124.23193359 481.53125 C98.02725553 496.28470851 69.08953614 505.81420334 39.375 510.3125 C38.25617432 510.48982666 37.13734863 510.66715332 35.98461914 510.84985352 C24.26264053 512.53126341 12.64001024 512.66984341 0.8125 512.625 C-0.71810562 512.62176727 -0.71810562 512.62176727 -2.27963257 512.61846924 C-16.90710524 512.56883352 -31.25763838 512.32169712 -45.625 509.3125 C-47.08728027 509.01448486 -47.08728027 509.01448486 -48.57910156 508.71044922 C-91.84881524 499.65920074 -132.05019334 481.27479329 -165.625 452.3125 C-166.37007813 451.67828125 -167.11515625 451.0440625 -167.8828125 450.390625 C-181.38779833 438.57948485 -194.05918743 425.82889772 -204.625 411.3125 C-205.48149066 410.16255169 -206.33826433 409.01281411 -207.1953125 407.86328125 C-213.23534209 399.67315742 -218.61867614 391.16870382 -223.625 382.3125 C-224.0271875 381.60528809 -224.429375 380.89807617 -224.84375 380.16943359 C-237.8691741 357.03404164 -246.61801461 331.86287591 -251.9375 305.875 C-252.08485596 305.15610596 -252.23221191 304.43721191 -252.3840332 303.6965332 C-255.35789088 288.05024391 -255.99800362 272.57681954 -255.9375 256.6875 C-255.93534485 255.66959381 -255.9331897 254.65168762 -255.93096924 253.60293579 C-255.88129854 238.99386477 -255.63040191 224.66174147 -252.625 210.3125 C-252.42632324 209.33764648 -252.22764648 208.36279297 -252.02294922 207.35839844 C-241.90232806 158.9765226 -219.9858123 114.98821731 -185.625 79.3125 C-184.99287598 78.65314453 -184.36075195 77.99378906 -183.70947266 77.31445312 C-174.56502521 67.82619695 -165.26765991 59.0862956 -154.625 51.3125 C-153.47394983 50.45443848 -152.32290823 49.59636549 -151.171875 48.73828125 C-142.98224019 42.70072604 -134.47961724 37.31792698 -125.625 32.3125 C-124.91778809 31.9103125 -124.21057617 31.508125 -123.48193359 31.09375 C-100.34654164 18.0683259 -75.17537591 9.31948539 -49.1875 4 C-48.46860596 3.85264404 -47.74971191 3.70528809 -47.0090332 3.5534668 C-31.36274391 0.57960912 -15.88931954 -0.06050362 0 0 Z " fill="#466276" transform="translate(255.625,-0.3125)"/>
<path d="M0 0 C109.2323243 0 109.2323243 0 128.6875 5.3125 C129.86046631 5.62888428 129.86046631 5.62888428 131.05712891 5.95166016 C162.10325124 14.61172806 188.67491369 33.68508081 205.12109375 61.59375 C215.62853871 80.64258993 220.42215391 100.32505286 220.3125 122.1875 C220.30512817 123.94960815 220.30512817 123.94960815 220.29760742 125.74731445 C219.96039141 151.00047029 212.88047352 175.98876747 197 196 C196.57734863 196.53334961 196.15469727 197.06669922 195.71923828 197.61621094 C185.53656508 210.32594505 174.28148455 219.96876516 160 228 C158.94554687 228.59554687 157.89109375 229.19109375 156.8046875 229.8046875 C108.90948575 255.28085864 51.86707821 246 0 246 C0 164.82 0 83.64 0 0 Z " fill="#FDFDFE" transform="translate(146,133)"/>
<path d="M0 0 C1.01790619 0.00215515 2.03581238 0.0043103 3.08456421 0.00653076 C17.69363523 0.05620146 32.02575853 0.30709809 46.375 3.3125 C47.34985352 3.51117676 48.32470703 3.70985352 49.32910156 3.91455078 C97.7109774 14.03517194 141.69928269 35.9516877 177.375 70.3125 C178.3640332 71.26068604 178.3640332 71.26068604 179.37304688 72.22802734 C188.86130305 81.37247479 197.6012044 90.66984009 205.375 101.3125 C206.23306152 102.46355017 207.09113451 103.61459177 207.94921875 104.765625 C213.98736829 112.95680614 219.34595521 121.47054105 224.375 130.3125 C224.73948242 130.94430176 225.10396484 131.57610352 225.47949219 132.22705078 C240.17192521 157.89666346 249.92219235 187.08760446 254.375 216.3125 C254.55377686 217.48506348 254.73255371 218.65762695 254.91674805 219.86572266 C256.50206356 231.16042172 256.65136441 242.36266403 256.58081055 253.75390625 C256.56235919 256.83602059 256.56030303 259.91783568 256.56054688 263 C256.55563632 264.9895859 256.54981003 266.9791698 256.54296875 268.96875 C256.54185593 269.87516235 256.5407431 270.78157471 256.53959656 271.7154541 C256.49828846 277.31874928 256.0812354 282.75278947 255.375 288.3125 C245.46206847 288.3125 232.42881834 278.35041666 225.35253906 271.89257812 C218.68204726 264.78935428 219.56682257 254.67017429 219.76660156 245.54174805 C219.86783425 242.48360458 220.02737123 239.43275898 220.20800781 236.37841797 C220.47643659 231.27133168 219.95634852 226.40276813 219.0625 221.375 C218.93278809 220.61010254 218.80307617 219.84520508 218.66943359 219.05712891 C218.26726631 216.80217162 217.82653277 214.55805192 217.375 212.3125 C217.22224609 211.51021973 217.06949219 210.70793945 216.91210938 209.88134766 C210.8297053 178.63935779 196.78383757 148.47586222 177.375 123.3125 C176.28058594 121.87390625 176.28058594 121.87390625 175.1640625 120.40625 C162.82211862 104.60075665 148.64742201 90.05990303 132.375 78.3125 C131.72644043 77.84134766 131.07788086 77.37019531 130.40966797 76.88476562 C105.08098873 58.70878407 76.0139004 45.35319704 45.375 39.3125 C43.90184326 39.02052734 43.90184326 39.02052734 42.39892578 38.72265625 C-13.36798041 28.12512587 -73.25885622 39.20133499 -120.7890625 70.65234375 C-131.90387926 78.25524718 -142.48037831 86.53447552 -152.16259766 95.90136719 C-153.69304707 97.37816145 -155.24301517 98.8327745 -156.79296875 100.2890625 C-165.44161319 108.54228847 -172.64911609 117.62389996 -179.625 127.3125 C-180.06408691 127.91223633 -180.50317383 128.51197266 -180.95556641 129.12988281 C-200.04542325 155.39240143 -211.45428982 185.65675679 -217.625 217.3125 C-217.80289063 218.17810547 -217.98078125 219.04371094 -218.1640625 219.93554688 C-220.56983007 231.93574465 -220.90295952 243.86567716 -220.9375 256.0625 C-220.94126648 256.79217987 -220.94503296 257.52185974 -220.94891357 258.27365112 C-220.98773839 273.09909506 -219.49758756 287.60192828 -216.4375 302.125 C-216.22536865 303.1348999 -216.0132373 304.1447998 -215.79467773 305.18530273 C-213.75425076 314.44972801 -210.86613356 323.28148727 -207.46289062 332.12695312 C-206.70543007 334.10270687 -205.98064905 336.08672966 -205.265625 338.078125 C-191.45284299 374.96637813 -166.056219 408.63182938 -134.34130859 432.04492188 C-132.63932411 433.30192094 -130.95455002 434.5797632 -129.26953125 435.859375 C-120.23633874 442.61598357 -110.62492929 448.11750514 -100.625 453.3125 C-99.94099121 453.67085938 -99.25698242 454.02921875 -98.55224609 454.3984375 C-71.25315051 468.51568547 -38.41908269 477.80355147 -7.5703125 477.22265625 C22.34456478 476.77051742 22.34456478 476.77051742 32.62402344 486.44360352 C33.90068202 487.72854576 35.16088901 489.0300506 36.40380859 490.34765625 C39.91022594 493.84278218 43.94922385 496.64639463 47.9375 499.5625 C49.35997045 500.62420348 50.77837312 501.69139326 52.19140625 502.765625 C52.78381104 503.21067383 53.37621582 503.65572266 53.98657227 504.11425781 C55.375 505.3125 55.375 505.3125 56.375 507.3125 C52.56319525 507.96248069 48.75044068 508.60671929 44.9375 509.25 C43.86822266 509.43240234 42.79894531 509.61480469 41.69726562 509.80273438 C40.64345703 509.97998047 39.58964844 510.15722656 38.50390625 510.33984375 C37.54556885 510.50218506 36.58723145 510.66452637 35.59985352 510.83178711 C28.12266966 511.94637376 20.80209947 512.47810597 13.2421875 512.515625 C12.29583939 512.52268463 11.34949127 512.52974426 10.37446594 512.53701782 C-29.14152112 512.76491099 -29.14152112 512.76491099 -45.625 509.3125 C-47.08728027 509.01448486 -47.08728027 509.01448486 -48.57910156 508.71044922 C-91.84881524 499.65920074 -132.05019334 481.27479329 -165.625 452.3125 C-166.37007813 451.67828125 -167.11515625 451.0440625 -167.8828125 450.390625 C-181.38779833 438.57948485 -194.05918743 425.82889772 -204.625 411.3125 C-205.48149066 410.16255169 -206.33826433 409.01281411 -207.1953125 407.86328125 C-213.23534209 399.67315742 -218.61867614 391.16870382 -223.625 382.3125 C-224.0271875 381.60528809 -224.429375 380.89807617 -224.84375 380.16943359 C-237.8691741 357.03404164 -246.61801461 331.86287591 -251.9375 305.875 C-252.08485596 305.15610596 -252.23221191 304.43721191 -252.3840332 303.6965332 C-255.35789088 288.05024391 -255.99800362 272.57681954 -255.9375 256.6875 C-255.93534485 255.66959381 -255.9331897 254.65168762 -255.93096924 253.60293579 C-255.88129854 238.99386477 -255.63040191 224.66174147 -252.625 210.3125 C-252.42632324 209.33764648 -252.22764648 208.36279297 -252.02294922 207.35839844 C-241.90232806 158.9765226 -219.9858123 114.98821731 -185.625 79.3125 C-184.99287598 78.65314453 -184.36075195 77.99378906 -183.70947266 77.31445312 C-174.56502521 67.82619695 -165.26765991 59.0862956 -154.625 51.3125 C-153.47394983 50.45443848 -152.32290823 49.59636549 -151.171875 48.73828125 C-142.98224019 42.70072604 -134.47961724 37.31792698 -125.625 32.3125 C-124.91778809 31.9103125 -124.21057617 31.508125 -123.48193359 31.09375 C-100.34654164 18.0683259 -75.17537591 9.31948539 -49.1875 4 C-48.46860596 3.85264404 -47.74971191 3.70528809 -47.0090332 3.5534668 C-31.36274391 0.57960912 -15.88931954 -0.06050362 0 0 Z " fill="#597D95" transform="translate(255.625,-0.3125)"/>
<path d="M0 0 C59.40338235 0 59.40338235 0 78.75 18.3125 C93.91311884 34.66700674 99.57879686 54.03522719 99.375 76 C99.38660156 77.25039063 99.39820313 78.50078125 99.41015625 79.7890625 C99.34361577 101.21509774 92.46652382 120.82705751 77.69140625 136.4609375 C55.96147745 156.96087033 28.64488039 154 0 154 C0 103.18 0 52.36 0 0 Z " fill="#425D70" transform="translate(206,179)"/>
<path d="M0 0 C4.05689205 1.44567137 7.33569847 3.41758355 10.88671875 5.84375 C11.42980179 6.21350952 11.97288483 6.58326904 12.53242493 6.9642334 C13.67265936 7.74195832 14.81132528 8.52198738 15.94848633 9.30419922 C17.68922954 10.50118929 19.43496779 11.69059001 21.18164062 12.87890625 C29.69820253 18.69820253 29.69820253 18.69820253 32 21 C35.73007229 63.97354118 4.17481633 116.86822775 -21.6875 148.9375 C-23.11508801 150.63339356 -24.55205367 152.32145482 -26 154 C-26.63421875 154.74507812 -27.2684375 155.49015625 -27.921875 156.2578125 C-39.73301515 169.76279833 -52.48360228 182.43418743 -67 193 C-68.14994831 193.85649066 -69.29968589 194.71326433 -70.44921875 195.5703125 C-78.63934258 201.61034209 -87.14379618 206.99367614 -96 212 C-97.06081787 212.60328125 -97.06081787 212.60328125 -98.14306641 213.21875 C-145.92337341 240.11947266 -145.92337341 240.11947266 -167 238 C-169.01367188 236.87353516 -169.01367188 236.87353516 -170.96875 235.2890625 C-171.69884277 234.70809814 -172.42893555 234.12713379 -173.18115234 233.52856445 C-174.32898193 232.58630005 -174.32898193 232.58630005 -175.5 231.625 C-177.10650036 230.33950566 -178.71327325 229.05435184 -180.3203125 227.76953125 C-181.11083008 227.13096191 -181.90134766 226.49239258 -182.71582031 225.83447266 C-185.89861295 223.27830508 -189.13145048 220.79079238 -192.375 218.3125 C-193.37273437 217.54550781 -194.37046875 216.77851563 -195.3984375 215.98828125 C-196.25695312 215.33214844 -197.11546875 214.67601562 -198 214 C-198.98613281 213.14535156 -198.98613281 213.14535156 -199.9921875 212.2734375 C-202.61251835 210.6115156 -204.67124845 210.49575902 -207.75 210.3125 C-209.22726562 210.21388672 -209.22726562 210.21388672 -210.734375 210.11328125 C-211.48203125 210.07589844 -212.2296875 210.03851563 -213 210 C-213 209.67 -213 209.34 -213 209 C-211.96746094 208.97421875 -210.93492187 208.9484375 -209.87109375 208.921875 C-158.63231464 207.14680453 -108.96821265 185.58342137 -71.75390625 150.54296875 C-69.81734222 148.75473728 -67.89049156 147.06365644 -65.85546875 145.3984375 C-62.1112856 142.25352853 -59.1399431 138.73179746 -56 135 C-54.87078125 133.70255859 -54.87078125 133.70255859 -53.71875 132.37890625 C-21.15110083 94.40049259 -5.88945617 49.05297045 0 0 Z " fill="#4E6D83" transform="translate(478,268)"/>
</svg>
