<?xml version="1.0" encoding="UTF-8"?>
<svg version="1.1" xmlns="http://www.w3.org/2000/svg" width="512" height="512">
<path d="M0 0 C0.99660645 0.19335938 1.99321289 0.38671875 3.02001953 0.5859375 C49.47365335 9.76476193 92.27640218 30.69306284 127 63 C128.39160821 64.2131969 129.78727188 65.42176214 131.1875 66.625 C137.65718811 72.27623359 143.48510243 78.41972449 149 85 C149.42410156 85.50499023 149.84820312 86.00998047 150.28515625 86.53027344 C162.55286827 101.23273332 173.13262709 117.02708256 182 134 C182.59095459 135.11689209 182.59095459 135.11689209 183.19384766 136.25634766 C194.72239556 158.31274906 202.50044698 182.55056543 207 207 C207.16081055 207.80066895 207.32162109 208.60133789 207.48730469 209.42626953 C212.9794441 237.50412453 212.73396692 270.98977935 207 299 C206.80664062 299.99660645 206.61328125 300.99321289 206.4140625 302.02001953 C198.47427489 342.20294157 181.8327458 380.10665992 156 412 C155.29746094 412.89460938 154.59492188 413.78921875 153.87109375 414.7109375 C131.81362352 442.41479514 104.3006232 464.5476448 73 481 C72.25105469 481.39687012 71.50210937 481.79374023 70.73046875 482.20263672 C48.67880409 493.72673427 24.44303189 501.5016253 0 506 C-0.80066895 506.16081055 -1.60133789 506.32162109 -2.42626953 506.48730469 C-30.50412453 511.9794441 -63.98977935 511.73396692 -92 506 C-93.49490967 505.70996094 -93.49490967 505.70996094 -95.02001953 505.4140625 C-135.20294157 497.47427489 -173.10665992 480.8327458 -205 455 C-205.89460938 454.29746094 -206.78921875 453.59492188 -207.7109375 452.87109375 C-235.41479514 430.81362352 -257.5476448 403.3006232 -274 372 C-274.39687012 371.25105469 -274.79374023 370.50210937 -275.20263672 369.73046875 C-286.72673427 347.67880409 -294.5016253 323.44303189 -299 299 C-299.24121582 297.79899658 -299.24121582 297.79899658 -299.48730469 296.57373047 C-304.9794441 268.49587547 -304.73396692 235.01022065 -299 207 C-298.70996094 205.50509033 -298.70996094 205.50509033 -298.4140625 203.97998047 C-289.23478744 157.52406603 -268.30554139 114.72686402 -236 80 C-234.80778787 78.6290837 -233.62008001 77.25423376 -232.4375 75.875 C-226.41738238 69.00076958 -219.96227821 62.98465851 -212.828125 57.2734375 C-211.02615055 55.82488898 -209.24248128 54.35305078 -207.484375 52.8515625 C-194.55811998 41.86821084 -180.01113241 32.84245309 -165 25 C-164.25540527 24.60603027 -163.51081055 24.21206055 -162.74365234 23.80615234 C-140.68725094 12.27760444 -116.44943457 4.49955302 -92 0 C-91.19933105 -0.16081055 -90.39866211 -0.32162109 -89.57373047 -0.48730469 C-61.49587547 -5.9794441 -28.01022065 -5.73396692 0 0 Z " fill="#E2211A" transform="translate(302,3)"/>
<path d="M0 0 C16.5 0 33 0 50 0 C50 49.17 50 98.34 50 149 C72.44 149 94.88 149 118 149 C118 163.19 118 177.38 118 192 C79.06 192 40.12 192 0 192 C0 128.64 0 65.28 0 0 Z " fill="#FEFDFD" transform="translate(197,160)"/>
</svg>
