<?xml version="1.0" encoding="UTF-8"?>
<svg version="1.1" xmlns="http://www.w3.org/2000/svg" width="512" height="512">
<path d="M0 0 C0.99660645 0.19335938 1.99321289 0.38671875 3.02001953 0.5859375 C49.47365335 9.76476193 92.27640218 30.69306284 127 63 C128.39160821 64.2131969 129.78727188 65.42176214 131.1875 66.625 C137.65718811 72.27623359 143.48510243 78.41972449 149 85 C149.42410156 85.50499023 149.84820312 86.00998047 150.28515625 86.53027344 C162.55286827 101.23273332 173.13262709 117.02708256 182 134 C182.59095459 135.11689209 182.59095459 135.11689209 183.19384766 136.25634766 C194.72239556 158.31274906 202.50044698 182.55056543 207 207 C207.16081055 207.80066895 207.32162109 208.60133789 207.48730469 209.42626953 C212.9794441 237.50412453 212.73396692 270.98977935 207 299 C206.80664062 299.99660645 206.61328125 300.99321289 206.4140625 302.02001953 C198.47427489 342.20294157 181.8327458 380.10665992 156 412 C155.29746094 412.89460938 154.59492188 413.78921875 153.87109375 414.7109375 C131.81362352 442.41479514 104.3006232 464.5476448 73 481 C72.25105469 481.39687012 71.50210937 481.79374023 70.73046875 482.20263672 C48.67880409 493.72673427 24.44303189 501.5016253 0 506 C-0.80066895 506.16081055 -1.60133789 506.32162109 -2.42626953 506.48730469 C-30.50412453 511.9794441 -63.98977935 511.73396692 -92 506 C-93.49490967 505.70996094 -93.49490967 505.70996094 -95.02001953 505.4140625 C-135.20294157 497.47427489 -173.10665992 480.8327458 -205 455 C-205.89460938 454.29746094 -206.78921875 453.59492188 -207.7109375 452.87109375 C-235.41479514 430.81362352 -257.5476448 403.3006232 -274 372 C-274.39687012 371.25105469 -274.79374023 370.50210937 -275.20263672 369.73046875 C-286.72673427 347.67880409 -294.5016253 323.44303189 -299 299 C-299.24121582 297.79899658 -299.24121582 297.79899658 -299.48730469 296.57373047 C-304.9794441 268.49587547 -304.73396692 235.01022065 -299 207 C-298.70996094 205.50509033 -298.70996094 205.50509033 -298.4140625 203.97998047 C-289.23478744 157.52406603 -268.30554139 114.72686402 -236 80 C-234.80778787 78.6290837 -233.62008001 77.25423376 -232.4375 75.875 C-226.41738238 69.00076958 -219.96227821 62.98465851 -212.828125 57.2734375 C-211.02615055 55.82488898 -209.24248128 54.35305078 -207.484375 52.8515625 C-194.55811998 41.86821084 -180.01113241 32.84245309 -165 25 C-164.25540527 24.60603027 -163.51081055 24.21206055 -162.74365234 23.80615234 C-140.68725094 12.27760444 -116.44943457 4.49955302 -92 0 C-91.19933105 -0.16081055 -90.39866211 -0.32162109 -89.57373047 -0.48730469 C-61.49587547 -5.9794441 -28.01022065 -5.73396692 0 0 Z " fill="#3CB53F" transform="translate(302,3)"/>
<path d="M0 0 C17.82 0 35.64 0 54 0 C55.216875 5.218125 56.43375 10.43625 57.6875 15.8125 C61.75899327 33.13101983 66.12082855 50.36870547 70.54806519 67.59927368 C73.81354733 80.31569243 77.03086235 93.02459481 79.88208008 105.84130859 C81.26255359 111.98433689 82.77217067 118.08536498 84.3515625 124.1796875 C84.55914185 124.98077942 84.76672119 125.78187134 84.98059082 126.60723877 C86.01370586 130.5842825 87.05530966 134.55893259 88.10644531 138.53125 C88.48505834 139.97655404 88.86364055 141.42186615 89.2421875 142.8671875 C89.41996735 143.52943329 89.59774719 144.19167908 89.78091431 144.87399292 C90.61766482 148.08231253 91 150.64489617 91 154 C91.66 154 92.32 154 93 154 C93.28101563 152.71480469 93.56203125 151.42960938 93.8515625 150.10546875 C96.97426571 136.06428041 100.68302989 122.17934028 104.77392578 108.39160156 C108.12908885 97.07487222 111.37851223 85.77163932 114.15600586 74.29833984 C115.79174298 67.62581479 117.74566614 61.07708517 119.76538086 54.51220703 C121.82272983 47.75774154 123.56737312 40.95104855 125.24389648 34.09350586 C128.06249013 22.5877627 131.51471789 11.32716685 135 0 C148.86 0 162.72 0 177 0 C179.44348575 7.94132868 181.78753322 15.77625197 183.8125 23.8125 C185.8684525 31.84081949 188.07661407 39.80620478 190.4375 47.75 C193.36321606 57.60256408 196.00737584 67.51060434 198.51538086 77.47753906 C200.17010241 84.00452403 202.03180191 90.42893518 204.04272461 96.85473633 C205.49174336 101.61569234 206.7172391 106.42632091 207.9375 111.25 C210.09516653 119.65535106 212.41353965 127.9910169 214.8984375 136.3046875 C215.89703728 139.65460023 216.87195172 143.00836457 217.8125 146.375 C218.04582031 147.20773437 218.27914062 148.04046875 218.51953125 148.8984375 C219 151 219 151 219 154 C219.66 154 220.32 154 221 154 C221.10868408 152.9073584 221.21736816 151.8147168 221.3293457 150.68896484 C222.00308912 145.331747 223.36248188 140.19215627 224.73046875 134.9765625 C225.13982414 133.3880397 225.13982414 133.3880397 225.55744934 131.76742554 C226.4294523 128.38538623 227.30787959 125.00506543 228.1875 121.625 C231.60086659 108.48281237 234.96878035 95.34336993 237.9765625 82.1015625 C241.12346711 68.25085884 244.63946529 54.50252591 248.1875 40.75 C249.11676947 37.14607591 250.04499206 33.54189961 250.96980286 29.93682861 C251.53707945 27.72550248 252.10675278 25.51478895 252.67948914 23.30487061 C254.6661486 15.56114654 256.32108978 7.83491438 258 0 C275.82 0 293.64 0 312 0 C309.76205788 11.18971061 309.76205788 11.18971061 308.25 16.6875 C306.98806347 21.32558764 305.74485082 25.96603498 304.546875 30.62109375 C302.22105547 39.65623598 299.87601925 48.64761286 297.0546875 57.54296875 C293.27440805 69.93388471 290.11376903 82.52178067 286.875 95.0625 C285.09517045 101.94840723 283.20532184 108.76224973 281.0546875 115.54296875 C277.62983739 126.76886633 274.7229281 138.16182743 271.79638672 149.52587891 C269.2509113 159.40801402 266.51229976 169.21097876 263.61230469 178.99487305 C261.27742647 186.92065984 259.14774681 194.88847765 257.12890625 202.90039062 C255.31453736 210.03655664 253.1748093 216.93186977 251 224 C231.53 224 212.06 224 192 224 C188.535 211.13 188.535 211.13 185 198 C183.53693992 192.70511591 182.07289949 187.41112829 180.59277344 182.12109375 C179.76842049 179.17134977 178.94905516 176.2202292 178.12988281 173.26904297 C177.71029652 171.75755654 177.29037516 170.24616309 176.87011719 168.73486328 C175.84872967 165.06152171 174.83061031 161.38734566 173.8203125 157.7109375 C171.76247726 150.23890474 169.65165175 142.7866875 167.45874023 135.35302734 C164.70655001 126.01612269 162.04596116 116.66231032 159.5625 107.25 C159.303479 106.27973877 159.04445801 105.30947754 158.77758789 104.30981445 C158.54289795 103.40835693 158.30820801 102.50689941 158.06640625 101.578125 C157.7561853 100.39331543 157.7561853 100.39331543 157.43969727 99.18457031 C157 97 157 97 157 93 C156.34 93 155.68 93 155 93 C154.88269531 93.95648438 154.76539063 94.91296875 154.64453125 95.8984375 C153.9769639 100.55387213 152.844456 105.07054394 151.6875 109.625 C151.46312256 110.51598389 151.23874512 111.40696777 151.00756836 112.32495117 C149.54197379 118.07122729 147.88765292 123.72482045 146.0859375 129.375 C144.65402468 134.15491041 143.42555095 138.97931635 142.1875 143.8125 C140.10078879 151.94102228 137.87635137 160.01388417 135.5 168.0625 C132.17211873 179.33556112 129.06525158 190.65204733 126 202 C124.02 209.26 122.04 216.52 120 224 C100.53 224 81.06 224 61 224 C54.17378783 201.24595942 54.17378783 201.24595942 52.375 193.625 C50.22452316 184.80753172 47.80760449 176.09225437 45.22607422 167.39160156 C41.86935772 156.06963262 38.62130889 144.76077533 35.83959961 133.28295898 C34.4468954 127.60640292 32.84687236 122.02234579 31.125 116.4375 C28.3164277 107.316935 25.9064073 98.11316888 23.54003906 88.86914062 C21.32992534 80.23964 19.00507035 71.65094675 16.58398438 63.07861328 C15.9914877 60.96970162 15.40837244 58.85840648 14.828125 56.74609375 C12.73695956 49.14286574 10.58593855 41.56150321 8.35717773 33.99731445 C0 5.6246184 0 5.6246184 0 0 Z " fill="#FEFEFE" transform="translate(100,144)"/>
</svg>
