<svg width="128" height="128" viewBox="0 0 128 128" fill="none" xmlns="http://www.w3.org/2000/svg">
  <!-- Football/Soccer Ball -->
  <circle cx="64" cy="64" r="60" fill="#FFFFFF" stroke="#000000" stroke-width="2"/>

  <!-- Pentagon in center -->
  <path d="M64 24 L84 36 L78 58 L50 58 L44 36 Z" fill="#000000"/>

  <!-- Top hexagons -->
  <path d="M64 24 L44 36 L34 22 L54 10 Z" fill="#FFFFFF" stroke="#000000" stroke-width="1.5"/>
  <path d="M64 24 L84 36 L94 22 L74 10 Z" fill="#FFFFFF" stroke="#000000" stroke-width="1.5"/>

  <!-- Side hexagons -->
  <path d="M44 36 L50 58 L32 66 L22 48 L34 22 Z" fill="#FFFFFF" stroke="#000000" stroke-width="1.5"/>
  <path d="M84 36 L78 58 L96 66 L106 48 L94 22 Z" fill="#FFFFFF" stroke="#000000" stroke-width="1.5"/>

  <!-- Bottom hexagons -->
  <path d="M50 58 L32 66 L38 88 L56 82 Z" fill="#FFFFFF" stroke="#000000" stroke-width="1.5"/>
  <path d="M78 58 L96 66 L90 88 L72 82 Z" fill="#FFFFFF" stroke="#000000" stroke-width="1.5"/>

  <!-- Bottom pentagon -->
  <path d="M50 58 L56 82 L64 92 L72 82 L78 58 Z" fill="#000000"/>

  <!-- Bottom connections -->
  <path d="M56 82 L38 88 L44 104 L64 108 Z" fill="#FFFFFF" stroke="#000000" stroke-width="1.5"/>
  <path d="M72 82 L90 88 L84 104 L64 108 Z" fill="#FFFFFF" stroke="#000000" stroke-width="1.5"/>
  <path d="M64 92 L64 108 Z" stroke="#000000" stroke-width="1.5"/>
</svg>
