<svg xmlns="http://www.w3.org/2000/svg" fill="none" viewBox="0 0 72 72"><g fill="#13294B" clip-path="url(#a)"><path d="M70.534 36c0-19.039-15.51-34.534-34.565-34.534C16.913 1.466 1.406 16.964 1.406 36s15.51 34.534 34.566 34.534c19.055 0 34.565-15.498 34.565-34.534zM35.97 0C55.879 0 72 16.17 72 36S55.878 72 35.969 72C16.059 72 0 55.83 0 36S16.122 0 35.969 0"/><path d="M9.71 36c0-14.522 11.787-26.298 26.259-26.298 14.47 0 26.32 11.776 26.32 26.298S50.503 62.239 35.97 62.239C21.435 62.239 9.71 50.463 9.71 36m26.261-25.2c-13.862 0-25.16 11.29-25.16 25.2s11.298 25.137 25.16 25.137S61.192 49.847 61.192 36s-11.298-25.2-25.22-25.2"/><path d="M41.649 20.746v1.344h.976c1.773 0 3.176 1.402 3.176 3.11v13.791c0 .122-.185.245-.304.122L30.169 20.75h-9.406v1.343h.427c.55 0 1.099.245 1.466.672l.549.609 1.406 1.707v21.356c0 1.585-1.221 2.806-2.809 2.806h-1.039V50.4H30.84v-1.158h-.793a3.345 3.345 0 0 1-3.359-3.355v-18.06c0-.123.123-.123.185-.063l19.603 23.43h1.283V24.895a2.8 2.8 0 0 1 2.809-2.805h.672v-1.344h-9.591"/></g><defs><clipPath id="a"><path fill="#fff" d="M0 0h72v71.997H0z"/></clipPath></defs></svg>