<?xml version="1.0" encoding="UTF-8"?>
<svg version="1.1" xmlns="http://www.w3.org/2000/svg" width="128" height="128">
<path d="M0 0 C0.7265625 1.8125 0.7265625 1.8125 1 4 C-0.5390625 5.5 -0.5390625 5.5 -2.625 7 C-4.65357044 8.73964169 -4.65357044 8.73964169 -6 11 C-6.1049375 17.35746381 -3.60834899 22.78864148 0.3125 27.6875 C2.81501105 30.25922944 3.88981752 30.96794692 7.4375 32 C8.283125 32 9.12875 32 10 32 C10 32.66 10 33.32 10 34 C10.78375 34.0825 11.5675 34.165 12.375 34.25 C15 35 15 35 16.0625 36.6875 C16.5265625 37.8321875 16.5265625 37.8321875 17 39 C19.32550799 42.87584665 20.81872764 45.2465632 25 47 C26.625 48.5 26.625 48.5 28 50 C29.9254644 52.2236068 29.9254644 52.2236068 33 53 C33.68620031 54.32338632 34.34786461 55.65949948 35 57 C38.11923363 61.48113357 38.11923363 61.48113357 42.8125 63.875 C43.534375 63.91625 44.25625 63.9575 45 64 C45.433125 63.030625 45.86625 62.06125 46.3125 61.0625 C48 58 48 58 51 57 C51.99 57 52.98 57 54 57 C54.86090383 67.57955151 54.86090383 67.57955151 51.625 72.125 C49 75 49 75 47 76 C47 78.31 47 80.62 47 83 C46.34 83 45.68 83 45 83 C44.91827348 84.72836466 44.86048182 86.45786959 44.8125 88.1875 C44.76029297 89.63189453 44.76029297 89.63189453 44.70703125 91.10546875 C44.79570349 94.05130403 44.79570349 94.05130403 46.45703125 96.40234375 C49.65154104 101.7804425 49.76830531 110.32395457 48.4921875 116.4296875 C47.29014873 119.37784574 45.70931803 122.26603646 43 124 C40.9375 123.9375 40.9375 123.9375 39 123 C37.75 120.9375 37.75 120.9375 37 119 C36.67 119.66 36.34 120.32 36 121 C33.69 121 31.38 121 29 121 C28.74953959 113.48618785 28.74953959 113.48618785 30.0625 110.9375 C31.6038843 107.75197244 30.81128746 105.36104805 30 102 C27.70599037 97.70446919 27.70599037 97.70446919 23.875 94.9375 C21.16942463 93.58471231 20.95136371 91.78613658 20 89 C19.34 88.01 18.68 87.02 18 86 C17.67 85.34 17.34 84.68 17 84 C16.34 84 15.68 84 15 84 C14.97421875 84.88300781 14.9484375 85.76601562 14.921875 86.67578125 C14.34657984 98.84850375 11.82769933 107.62763467 4 117 C2.99760784 118.33153586 1.99738199 119.66470717 1 121 C-2.14079395 124.79061339 -4.16634362 125.43133454 -9 126 C-10.52173828 126.495 -10.52173828 126.495 -12.07421875 127 C-16.68976885 128.34789863 -21.220293 128.36786611 -26 128.375 C-26.86367188 128.39949219 -27.72734375 128.42398438 -28.6171875 128.44921875 C-34.5951456 128.47647388 -38.11551085 127.49448825 -43 124 C-43.33 123.34 -43.66 122.68 -44 122 C-44.639375 121.71125 -45.27875 121.4225 -45.9375 121.125 C-48.50765633 119.72309655 -48.75496894 118.60995401 -50 116 C-50.97662186 114.49834188 -51.95599955 112.99847397 -52.9375 111.5 C-58.29783792 102.55296538 -60.19955387 93.24030709 -58 83 C-56.84425974 79.2523067 -55.47270792 75.63267953 -54 72 C-53.67 71.01 -53.34 70.02 -53 69 C-52.401875 68.71125 -51.80375 68.4225 -51.1875 68.125 C-48.29299613 66.63639801 -46.94841481 64.57693571 -45 62 C-42.53571429 59.125 -42.53571429 59.125 -40.125 58.5625 C-36.33062781 57.55810736 -33.72087492 54.72087492 -31 52 C-30.01 51.505 -30.01 51.505 -29 51 C-29.34224609 49.93072266 -29.34224609 49.93072266 -29.69140625 48.83984375 C-31.42911108 43.05009177 -32.202652 39.01325999 -31 33 C-30.6196372 27.02430028 -31.05741312 21.68212659 -32.66015625 15.91015625 C-33 14 -33 14 -32 11 C-29.03 11.495 -29.03 11.495 -26 12 C-25.01941648 10.54261898 -24.04057868 9.08406325 -23.0625 7.625 C-22.24458984 6.40683594 -22.24458984 6.40683594 -21.41015625 5.1640625 C-19.98906121 3.07280816 -19.98906121 3.07280816 -19 1 C-12.74133095 -0.39081535 -6.38034555 -0.09429082 0 0 Z M-8 12 C-7 14 -7 14 -7 14 Z M-9 14 C-8 16 -8 16 -8 16 Z M-28 45 C-28 46.98 -28 48.96 -28 51 C-27.67 51 -27.34 51 -27 51 C-27 49.02 -27 47.04 -27 45 C-27.33 45 -27.66 45 -28 45 Z M12 80 C13 82 13 82 13 82 Z M13 82 C14 86 14 86 14 86 Z M39 105 C40 108 40 108 40 108 Z " fill="#281F21" transform="translate(66,0)"/>
<path d="M0 0 C0.7265625 1.8125 0.7265625 1.8125 1 4 C-0.5390625 5.5 -0.5390625 5.5 -2.625 7 C-4.65357044 8.73964169 -4.65357044 8.73964169 -6 11 C-6.1049375 17.35746381 -3.60834899 22.78864148 0.3125 27.6875 C2.81501105 30.25922944 3.88981752 30.96794692 7.4375 32 C8.283125 32 9.12875 32 10 32 C10 32.66 10 33.32 10 34 C10.78375 34.0825 11.5675 34.165 12.375 34.25 C15 35 15 35 16.0625 36.6875 C16.5265625 37.8321875 16.5265625 37.8321875 17 39 C19.32550799 42.87584665 20.81872764 45.2465632 25 47 C26.625 48.5 26.625 48.5 28 50 C29.9254644 52.2236068 29.9254644 52.2236068 33 53 C33.68620031 54.32338632 34.34786461 55.65949948 35 57 C38.11923363 61.48113357 38.11923363 61.48113357 42.8125 63.875 C43.534375 63.91625 44.25625 63.9575 45 64 C45.433125 63.030625 45.86625 62.06125 46.3125 61.0625 C48 58 48 58 51 57 C51.99 57 52.98 57 54 57 C54.86090383 67.57955151 54.86090383 67.57955151 51.625 72.125 C49 75 49 75 47 76 C47 78.31 47 80.62 47 83 C46.34 83 45.68 83 45 83 C44.91827348 84.72836466 44.86048182 86.45786959 44.8125 88.1875 C44.76029297 89.63189453 44.76029297 89.63189453 44.70703125 91.10546875 C44.79570349 94.05130403 44.79570349 94.05130403 46.45703125 96.40234375 C49.65154104 101.7804425 49.76830531 110.32395457 48.4921875 116.4296875 C47.29014873 119.37784574 45.70931803 122.26603646 43 124 C40.9375 123.9375 40.9375 123.9375 39 123 C37.75 120.9375 37.75 120.9375 37 119 C36.67 119.66 36.34 120.32 36 121 C33.69 121 31.38 121 29 121 C28.74953959 113.48618785 28.74953959 113.48618785 30.0625 110.9375 C31.6038843 107.75197244 30.81128746 105.36104805 30 102 C27.70599037 97.70446919 27.70599037 97.70446919 23.875 94.9375 C21.16942463 93.58471231 20.95136371 91.78613658 20 89 C19.34 88.01 18.68 87.02 18 86 C17.67 85.34 17.34 84.68 17 84 C16.34 84 15.68 84 15 84 C14.97421875 84.88300781 14.9484375 85.76601562 14.921875 86.67578125 C14.34657984 98.84850375 11.82769933 107.62763467 4 117 C2.99760784 118.33153586 1.99738199 119.66470717 1 121 C-2.14079395 124.79061339 -4.16634362 125.43133454 -9 126 C-10.52173828 126.495 -10.52173828 126.495 -12.07421875 127 C-16.68976885 128.34789863 -21.220293 128.36786611 -26 128.375 C-26.86367188 128.39949219 -27.72734375 128.42398438 -28.6171875 128.44921875 C-34.5951456 128.47647388 -38.11551085 127.49448825 -43 124 C-43.33 123.34 -43.66 122.68 -44 122 C-44.639375 121.71125 -45.27875 121.4225 -45.9375 121.125 C-48.50765633 119.72309655 -48.75496894 118.60995401 -50 116 C-50.97662186 114.49834188 -51.95599955 112.99847397 -52.9375 111.5 C-58.29783792 102.55296538 -60.19955387 93.24030709 -58 83 C-56.84425974 79.2523067 -55.47270792 75.63267953 -54 72 C-53.67 71.01 -53.34 70.02 -53 69 C-52.401875 68.71125 -51.80375 68.4225 -51.1875 68.125 C-48.29299613 66.63639801 -46.94841481 64.57693571 -45 62 C-42.53571429 59.125 -42.53571429 59.125 -40.125 58.5625 C-36.33062781 57.55810736 -33.72087492 54.72087492 -31 52 C-30.01 51.505 -30.01 51.505 -29 51 C-29.34224609 49.93072266 -29.34224609 49.93072266 -29.69140625 48.83984375 C-31.42911108 43.05009177 -32.202652 39.01325999 -31 33 C-30.6196372 27.02430028 -31.05741312 21.68212659 -32.66015625 15.91015625 C-33 14 -33 14 -32 11 C-29.03 11.495 -29.03 11.495 -26 12 C-25.01941648 10.54261898 -24.04057868 9.08406325 -23.0625 7.625 C-22.24458984 6.40683594 -22.24458984 6.40683594 -21.41015625 5.1640625 C-19.98906121 3.07280816 -19.98906121 3.07280816 -19 1 C-12.74133095 -0.39081535 -6.38034555 -0.09429082 0 0 Z M-8 12 C-7 14 -7 14 -7 14 Z M-9 14 C-8 16 -8 16 -8 16 Z M-28 45 C-28 46.98 -28 48.96 -28 51 C-27.67 51 -27.34 51 -27 51 C-27 49.02 -27 47.04 -27 45 C-27.33 45 -27.66 45 -28 45 Z M-20.0625 50.3125 C-22.81990896 52.36479191 -25.19798117 53.50051688 -28.5 54.4375 C-33.4237917 55.9288007 -36.32947387 58.50076509 -40 62 C-41.39309959 63.19070587 -42.78899024 64.37815318 -44.1875 65.5625 C-47.16089933 68.19215374 -49.78437248 70.67655872 -52 74 C-52.37125 74.55300781 -52.7425 75.10601562 -53.125 75.67578125 C-57.36905205 83.26497154 -57.20767592 92.58061004 -56 101 C-53.21372648 110.5574439 -47.20292417 117.18709142 -38.8203125 122.33984375 C-30.42663007 126.79007915 -20.96555627 127.27626476 -11.8125 124.875 C-2.81075406 121.81269719 4.88404408 114.88263065 9.32421875 106.5 C13.58023401 96.22582983 13.14520592 86.19029787 9 76 C17.82798485 79.25692645 17.82798485 79.25692645 20.53125 83.27734375 C21.3084261 84.98135485 22.05816427 86.69812285 22.78125 88.42578125 C25.13831517 93.40432596 29.14368844 97.14368844 33 101 C33.33 101 33.66 101 34 101 C34.99 107.435 34.99 107.435 36 114 C36.66 113.67 37.32 113.34 38 113 C37.2812193 105.95792295 37.2812193 105.95792295 36 99 C36.66 99 37.32 99 38 99 C36.64763423 96.06120516 35.10057341 93.70767089 33 91.25 C32.484375 90.63640625 31.96875 90.0228125 31.4375 89.390625 C30.09376748 87.76823624 30.09376748 87.76823624 28 88 C26.33445973 82.69960141 24.72724594 77.52706913 24 72 C22.02 71.67 20.04 71.34 18 71 C18 71.66 18 72.32 18 73 C16.68 73 15.36 73 14 73 C13.938125 72.278125 13.87625 71.55625 13.8125 70.8125 C12.7462512 67.12163877 10.78771208 65.58858979 8 63 C7.443125 62.236875 6.88625 61.47375 6.3125 60.6875 C5.879375 60.130625 5.44625 59.57375 5 59 C4.34 59 3.68 59 3 59 C2.505 56.525 2.505 56.525 2 54 C0.45428722 56.31856917 -0.79618552 58.50638429 -2 61 C-2.65226562 60.4225 -3.30453125 59.845 -3.9765625 59.25 C-4.85054687 58.5075 -5.72453125 57.765 -6.625 57 C-7.48351563 56.2575 -8.34203125 55.515 -9.2265625 54.75 C-12.47994205 52.69716333 -14.22140657 52.53623958 -18 53 C-20.17032476 54.43990623 -20.17032476 54.43990623 -22 56 C-22.99 56 -23.98 56 -25 56 C-24.36191406 55.59007812 -23.72382812 55.18015625 -23.06640625 54.7578125 C-22.24011719 54.21898437 -21.41382813 53.68015625 -20.5625 53.125 C-19.73878906 52.59132813 -18.91507813 52.05765625 -18.06640625 51.5078125 C-15.88961129 50.16165694 -15.88961129 50.16165694 -15 48 C-17.37357294 47.79913244 -17.37357294 47.79913244 -20.0625 50.3125 Z M12 80 C13 82 13 82 13 82 Z M13 82 C14 86 14 86 14 86 Z M39 105 C40 108 40 108 40 108 Z " fill="#F1EEEF" transform="translate(66,0)"/>
<path d="M0 0 C0.66 0 1.32 0 2 0 C2.33 0.66 2.66 1.32 3 2 C4.32 2 5.64 2 7 2 C7 3.32 7 4.64 7 6 C6.01 6 5.02 6 4 6 C4 6.99 4 7.98 4 9 C3.01 9.495 3.01 9.495 2 10 C1.34786708 12.02463255 1.34786708 12.02463255 1 14 C1.66 14 2.32 14 3 14 C3.268125 13.21625 3.53625 12.4325 3.8125 11.625 C5 9 5 9 8 7 C11.32240324 7.3241369 12.60776303 7.60776303 15 10 C15.37890625 12.12890625 15.37890625 12.12890625 15.5625 14.5625 C15.58449303 17.58047788 15.58449303 17.58047788 17 20 C17.25 22.375 17.25 22.375 17 25 C15.5 26.6875 15.5 26.6875 14 28 C14 28.66 14 29.32 14 30 C18.91292517 26.65378726 18.91292517 26.65378726 20.875 21.1875 C20.91625 20.135625 20.9575 19.08375 21 18 C21.66 18 22.32 18 23 18 C26 22.38461538 26 22.38461538 26 25 C27.03125 25.0825 28.0625 25.165 29.125 25.25 C33.36413089 26.07047695 35.63724801 27.34107982 39 30 C41 33 41 33 41 36 C40.34 36 39.68 36 39 36 C39.495 38.475 39.495 38.475 40 41 C40.495 40.01 40.495 40.01 41 39 C42.32 39 43.64 39 45 39 C45.66 40.65 46.32 42.3 47 44 C45.68 45.32 44.36 46.64 43 48 C44.32 48.33 45.64 48.66 47 49 C46.979375 50.19625 46.95875 51.3925 46.9375 52.625 C46.93117429 56.18004869 47.30111125 59.50555624 48 63 C46.515 62.505 46.515 62.505 45 62 C45.5053125 62.65226562 46.010625 63.30453125 46.53125 63.9765625 C47.1809375 64.85054688 47.830625 65.72453125 48.5 66.625 C49.1496875 67.48351562 49.799375 68.34203125 50.46875 69.2265625 C52.2313466 72.41902063 52.29483737 74.40930198 52 78 C51.15695313 76.92298828 51.15695313 76.92298828 50.296875 75.82421875 C47.29704288 72.13564967 44.06404897 68.68825914 40.828125 65.20703125 C39 63 39 63 39 61 C38.34 61 37.68 61 37 61 C33.04887163 56.4166911 33.29271924 50.76354093 33 45 C29.50390192 44.95299364 26.41494168 45.2194419 23 46 C22.7525 44.88625 22.505 43.7725 22.25 42.625 C21.44843694 38.96592279 21.44843694 38.96592279 19.125 38 C18.42375 37.67 17.7225 37.34 17 37 C15.296875 35.2734375 15.296875 35.2734375 13.75 33.375 C13.22921875 32.74335937 12.7084375 32.11171875 12.171875 31.4609375 C11.78515625 30.97882812 11.3984375 30.49671875 11 30 C10.34 31.32 9.68 32.64 9 34 C5.20745382 34 4.49533489 32.94412571 1.6875 30.5 C-1.21824494 28.16974351 -2.60414879 27.07468891 -6.3125 26.375 C-9.24784671 27.05763877 -10.64372659 28.19352372 -13 30 C-15.1171875 29.58984375 -15.1171875 29.58984375 -17 29 C-15.41906946 27.87162591 -13.83515284 26.74743482 -12.25 25.625 C-11.36828125 24.99851562 -10.4865625 24.37203125 -9.578125 23.7265625 C-7.42585021 22.28519059 -5.34539477 21.08501907 -3 20 C-1.948125 21.2065625 -1.948125 21.2065625 -0.875 22.4375 C2.26291593 25.23433811 3.88758763 25.71308751 8 26 C8.33 24.35 8.66 22.7 9 21 C10.65 20.67 12.3 20.34 14 20 C13.67 17.03 13.34 14.06 13 11 C12.34 11 11.68 11 11 11 C10.7525 11.680625 10.505 12.36125 10.25 13.0625 C8.75802092 16.56865083 6.93164489 19.71620368 5 23 C2.73227621 21.07243478 1.36766512 19.00858336 -0.0625 16.4375 C-1.76643423 13.05436646 -1.76643423 13.05436646 -4 11 C-4.5193604 7.104797 -4.29481269 5.45204612 -2.125 2.125 C-1.42375 1.42375 -0.7225 0.7225 0 0 Z " fill="#F4F4F4" transform="translate(57,27)"/>
<path d="M0 0 C-0.33 0.99 -0.66 1.98 -1 3 C-2.19625 3.556875 -3.3925 4.11375 -4.625 4.6875 C-10.56998041 7.52148708 -14.63102149 11.73984663 -17.19238281 17.83959961 C-17.6927002 19.29378296 -17.6927002 19.29378296 -18.203125 20.77734375 C-18.54504883 21.75823975 -18.88697266 22.73913574 -19.23925781 23.74975586 C-19.6158252 24.86362671 -19.6158252 24.86362671 -20 26 C-19.05157227 25.72212646 -18.10314453 25.44425293 -17.12597656 25.15795898 C-13.60279346 24.12856937 -10.0759468 23.11226675 -6.54785156 22.09985352 C-5.02208197 21.66005189 -3.49732568 21.21671876 -1.97363281 20.76977539 C0.21812515 20.12753602 2.41322683 19.49813194 4.609375 18.87109375 C5.2886908 18.66906845 5.96800659 18.46704315 6.66790771 18.25889587 C10.09077094 17.29535767 12.62524799 16.64634947 16 18 C14.73160474 18.50615298 13.46016898 19.00469099 12.1875 19.5 C11.47980469 19.7784375 10.77210937 20.056875 10.04296875 20.34375 C8 21 8 21 5 21 C4.67 25.62 4.34 30.24 4 35 C5.98 35 7.96 35 10 35 C10 35.99 10 36.98 10 38 C10.66 38 11.32 38 12 38 C11.979375 38.7425 11.95875 39.485 11.9375 40.25 C11.99328688 42.70462279 12.3069904 44.66109261 13 47 C8.25 48 8.25 48 6 48 C4.33034549 48.31802943 2.66321482 48.64984951 1 49 C0.91057077 45.15454314 1.18807837 41.75274011 2 38 C1.11957031 38.20496094 0.23914063 38.40992188 -0.66796875 38.62109375 C-1.82941406 38.89050781 -2.99085937 39.15992188 -4.1875 39.4375 C-5.33605469 39.70433594 -6.48460937 39.97117188 -7.66796875 40.24609375 C-10.43923875 40.87312201 -13.21091874 41.45899177 -16 42 C-12.53500467 48.32738278 -7.39443305 51.80278348 -1 55 C9.20439489 55.71961629 17.93058742 55.95795821 26.17578125 49.22265625 C32.36596365 43.14563989 34.21568443 36.25245952 36 28 C32.37 28.66 28.74 29.32 25 30 C24.505 28.02 24.505 28.02 24 26 C22.68 25.67 21.36 25.34 20 25 C20.33 23.68 20.66 22.36 21 21 C22.98 21 24.96 21 27 21 C27 19.02 27 17.04 27 15 C26.34 14.67 25.68 14.34 25 14 C26.65 13.67 28.3 13.34 30 13 C26.4536235 7.25824757 20.83598555 4.92805482 15 2 C15 1.34 15 0.68 15 0 C21.61755059 0.62039537 26.9959393 4.59479136 31.3125 9.4375 C37.43216059 17.10370525 38.57300988 24.44467311 38 34 C36.27317272 42.28877095 31.15100542 50.12536878 24.12109375 54.81640625 C16.81611681 58.8926641 9.31322041 60.24854374 1 59 C-8.39958432 55.92504305 -14.91729052 50.47697639 -20.15234375 42.171875 C-23.61825637 34.82477913 -23.27767193 25.20083043 -20.96875 17.609375 C-17.33538022 9.57559072 -9.66804483 0 0 0 Z " fill="#FEF6F6" transform="translate(36,63)"/>
<path d="M0 0 C0 1.98 0 3.96 0 6 C-1.98 6 -3.96 6 -6 6 C-6 7.32 -6 8.64 -6 10 C-4.68 10 -3.36 10 -2 10 C-2 11.65 -2 13.3 -2 15 C-0.9275 14.67 0.145 14.34 1.25 14 C5 13 5 13 9 13 C8.29856444 22.64473889 5.32765755 29.72356918 -1.890625 36.3359375 C-8.45407281 41.51376855 -15.93571438 41.8026159 -24.07421875 41.48046875 C-31.31912279 40.593779 -36.34526268 37.12554945 -41.125 31.75 C-43 29 -43 29 -43 27 C-41.1291122 26.32187886 -39.25305707 25.6580054 -37.375 25 C-36.33085938 24.62875 -35.28671875 24.2575 -34.2109375 23.875 C-30.98225494 22.99516436 -28.32755706 22.84011738 -25 23 C-25 23.66 -25 24.32 -25 25 C-24.34 25.33 -23.68 25.66 -23 26 C-23.66 26 -24.32 26 -25 26 C-25.33 28.64 -25.66 31.28 -26 34 C-22.45481116 32.60240095 -22.45481116 32.60240095 -19 31 C-19 31.66 -19 32.32 -19 33 C-16.525 32.505 -16.525 32.505 -14 32 C-14 31.01 -14 30.02 -14 29 C-14.66 28.67 -15.32 28.34 -16 28 C-15.67 26.35 -15.34 24.7 -15 23 C-15.66 23 -16.32 23 -17 23 C-17 22.01 -17 21.02 -17 20 C-17.61875 20.185625 -18.2375 20.37125 -18.875 20.5625 C-21 21 -21 21 -23 20 C-23.02736707 18.60427948 -23.04655989 17.20839779 -23.0625 15.8125 C-23.07410156 15.03519531 -23.08570312 14.25789063 -23.09765625 13.45703125 C-22.99518573 10.87887289 -22.56697553 8.51344269 -22 6 C-21.28972656 5.80664062 -20.57945313 5.61328125 -19.84765625 5.4140625 C-18.92855469 5.15367188 -18.00945313 4.89328125 -17.0625 4.625 C-15.68771484 4.24214844 -15.68771484 4.24214844 -14.28515625 3.8515625 C-11.83254913 3.23339896 -11.83254913 3.23339896 -11 1 C-3.88059701 -1.55223881 -3.88059701 -1.55223881 0 0 Z " fill="#2A2627" transform="translate(63,78)"/>
<path d="M0 0 C0 0.66 0 1.32 0 2 C-1.42578125 3.296875 -1.42578125 3.296875 -3.3125 4.75 C-6.61471057 7.47733181 -8.4332815 9.94496389 -10 14 C-10 14.66 -10 15.32 -10 16 C-8.68 15.67 -7.36 15.34 -6 15 C-5.773125 16.051875 -5.54625 17.10375 -5.3125 18.1875 C-4.18315433 22.19667711 -2.05175692 24.17154237 1 27 C2.05287814 28.63377642 3.0727001 30.29181597 4 32 C2.88625 32.226875 1.7725 32.45375 0.625 32.6875 C-3.16038373 33.60623658 -3.16038373 33.60623658 -4.4375 36.625 C-4.623125 37.40875 -4.80875 38.1925 -5 39 C-5.66 39 -6.32 39 -7 39 C-6.67 37.35 -6.34 35.7 -6 34 C-5.34 34 -4.68 34 -4 34 C-4 33.01 -4 32.02 -4 31 C-3.01 31 -2.02 31 -1 31 C-1.33 29.68 -1.66 28.36 -2 27 C-3.32 27.33 -4.64 27.66 -6 28 C-6 27.01 -6 26.02 -6 25 C-6.66 25 -7.32 25 -8 25 C-8.309375 25.639375 -8.61875 26.27875 -8.9375 26.9375 C-10 29 -10 29 -11 30 C-11.50265692 32.78839304 -11.50265692 32.78839304 -11 36 C-9.4045651 38.05727132 -7.73473712 40.05874656 -6 42 C-4.6875 44.875 -4.6875 44.875 -4 47 C-1.59424393 44.81482901 -0.20464419 42.74080329 1.1875 39.8125 C1.53167969 39.09707031 1.87585938 38.38164063 2.23046875 37.64453125 C2.61138672 36.83048828 2.61138672 36.83048828 3 36 C3.66 36 4.32 36 5 36 C5.495 40.455 5.495 40.455 6 45 C4.02 45.495 4.02 45.495 2 46 C0.70339566 48.49034386 0.70339566 48.49034386 0 51 C-2.92018963 51.34764162 -5.12801973 51.56494496 -7.6640625 49.921875 C-9.14372481 48.65359302 -10.5742202 47.32856754 -12 46 C-12.66 45.67 -13.32 45.34 -14 45 C-14 43.68 -14 42.36 -14 41 C-14.2981424 39.65835921 -14.62243192 38.32148827 -15 37 C-15.66 37 -16.32 37 -17 37 C-16.938125 37.9075 -16.87625 38.815 -16.8125 39.75 C-17.01672076 43.28982642 -17.64551835 44.44931155 -20 47 C-20.33 46.34 -20.66 45.68 -21 45 C-21.33 45.99 -21.66 46.98 -22 48 C-22.66 48 -23.32 48 -24 48 C-24.04125 47.0925 -24.0825 46.185 -24.125 45.25 C-24.72464389 41.72005826 -24.72464389 41.72005826 -28.0625 39.625 C-29.031875 39.08875 -30.00125 38.5525 -31 38 C-30.7525 36.576875 -30.7525 36.576875 -30.5 35.125 C-29.48262475 27.81169383 -29.68135709 21.0364199 -31.66015625 13.91015625 C-32 12 -32 12 -31 9 C-28.03 9.495 -28.03 9.495 -25 10 C-24.484375 9.071875 -23.96875 8.14375 -23.4375 7.1875 C-20.91963095 3.38371926 -18.28148165 2.40121218 -14 1 C-13.01 1 -12.02 1 -11 1 C-11 1.66 -11 2.32 -11 3 C-4.59183673 -0.20408163 -4.59183673 -0.20408163 0 0 Z " fill="#EDECED" transform="translate(65,2)"/>
<path d="M0 0 C7.80741943 0.41091681 14.60064952 5.17495304 19.875 10.6875 C25.84191661 18.13556612 27.73922869 26.37429555 27.37109375 35.80078125 C26.07689205 46.9581622 20.61300574 54.71455826 11.91796875 61.6640625 C4.26568826 66.82595585 -3.91548575 67.81877596 -13 67 C-22.7978938 65.09173591 -31.3827589 59.19536696 -37 51 C-37.41378906 50.401875 -37.82757813 49.80375 -38.25390625 49.1875 C-42.43060268 41.73638999 -42.20151053 32.25898129 -41 24 C-38.5470799 15.86239279 -33.73676646 9.17383664 -27 4 C-23.75 2.375 -23.75 2.375 -21 2 C-18.828125 2.9765625 -18.828125 2.9765625 -17 4 C-17.72445312 4.40089844 -18.44890625 4.80179688 -19.1953125 5.21484375 C-27.58973889 10.15076647 -32.951945 15.62347207 -36 25 C-37.08141795 36.11597061 -35.82009903 44.33240174 -28.9375 53.25 C-23.22104594 59.3313341 -16.23433531 62.23190631 -7.9375 62.5625 C-2.02178411 62.2866376 2.78400605 60.74860203 8 58 C8.64839844 57.66097656 9.29679687 57.32195312 9.96484375 56.97265625 C15.82809529 53.3674622 19.93873426 47.11719961 21.6484375 40.484375 C22.9978644 30.9484249 21.82491308 22.77078634 16.3125 14.75 C12.03722325 9.41122157 6.42457076 6.2084462 0 4 C0 2.68 0 1.36 0 0 Z " fill="#EC2028" transform="translate(51,59)"/>
<path d="M0 0 C0.66 0 1.32 0 2 0 C3.75 2.25 3.75 2.25 5 5 C3.24780995 10.1950898 -1.41534446 12.48952559 -6 15 C-7.52601332 15.54591159 -9.06836247 16.04876202 -10.625 16.5 C-15.50288636 17.95406664 -18.36247466 20.54880669 -22 24 C-22.67160156 24.54914062 -23.34320312 25.09828125 -24.03515625 25.6640625 C-30.29828072 30.79162982 -36.13580952 37.54937585 -37.25341797 45.89160156 C-38.01222834 56.37918511 -37.45662829 65.24920804 -31 74 C-24.7342022 81.07803085 -16.90573019 85.44839022 -7.45703125 86.203125 C4.25948722 86.41080332 12.13298886 83.34244779 20.6875 75.44140625 C26.83499727 69.03264035 29.20025747 61.19484376 29.4375 52.4375 C29.26279905 46.5955004 28.06664496 41.44954594 26 36 C38.01772529 40.71508839 38.01772529 40.71508839 40.8125 46.875 C41.32490234 48.15697266 41.32490234 48.15697266 41.84765625 49.46484375 C43.46439559 53.0216703 45.86213969 55.5129672 48.546875 58.30859375 C52.04865017 62.38458474 51.34663657 67.93749385 51 73 C50 76.125 50 76.125 49 78 C47.875 76.25 47.875 76.25 47 74 C47.309375 73.401875 47.61875 72.80375 47.9375 72.1875 C49.5649608 68.83684542 48.85977427 66.56192198 48 63 C45.70599037 58.70446919 45.70599037 58.70446919 41.875 55.9375 C39.16942463 54.58471231 38.95136371 52.78613658 38 50 C37.34 49.01 36.68 48.02 36 47 C35.67 46.34 35.34 45.68 35 45 C34.34 45 33.68 45 33 45 C32.97421875 45.88300781 32.9484375 46.76601562 32.921875 47.67578125 C32.34657984 59.84850375 29.82769933 68.62763467 22 78 C20.99760784 79.33153586 19.99738199 80.66470717 19 82 C15.85920605 85.79061339 13.83365638 86.43133454 9 87 C7.47826172 87.495 7.47826172 87.495 5.92578125 88 C1.31023115 89.34789863 -3.220293 89.36786611 -8 89.375 C-9.29550781 89.41173828 -9.29550781 89.41173828 -10.6171875 89.44921875 C-16.5951456 89.47647388 -20.11551085 88.49448825 -25 85 C-25.33 84.34 -25.66 83.68 -26 83 C-26.639375 82.71125 -27.27875 82.4225 -27.9375 82.125 C-30.50765633 80.72309655 -30.75496894 79.60995401 -32 77 C-32.97662186 75.49834188 -33.95599955 73.99847397 -34.9375 72.5 C-40.29783792 63.55296538 -42.19955387 54.24030709 -40 44 C-38.84425974 40.2523067 -37.47270792 36.63267953 -36 33 C-35.67 32.01 -35.34 31.02 -35 30 C-34.401875 29.71125 -33.80375 29.4225 -33.1875 29.125 C-30.29299613 27.63639801 -28.94841481 25.57693571 -27 23 C-24.53571429 20.125 -24.53571429 20.125 -22.125 19.5625 C-18.33062781 18.55810736 -15.72087492 15.72087492 -13 13 C-12.34 12.67 -11.68 12.34 -11 12 C-11.66 9.03 -12.32 6.06 -13 3 C-10 3 -10 3 -7 5 C-6.8125 8.125 -6.8125 8.125 -7 11 C-6.34 11 -5.68 11 -5 11 C-4.67 9.68 -4.34 8.36 -4 7 C-3.34 7.33 -2.68 7.66 -2 8 C-1.34 5.36 -0.68 2.72 0 0 Z M-10 6 C-10 7.98 -10 9.96 -10 12 C-9.67 12 -9.34 12 -9 12 C-9 10.02 -9 8.04 -9 6 C-9.33 6 -9.66 6 -10 6 Z M30 41 C31 43 31 43 31 43 Z M31 43 C32 47 32 47 32 47 Z " fill="#F9EFF0" transform="translate(48,39)"/>
<path d="M0 0 C0 1.98 0 3.96 0 6 C-1.98 6 -3.96 6 -6 6 C-6 7.32 -6 8.64 -6 10 C-4.68 10 -3.36 10 -2 10 C-2 11.65 -2 13.3 -2 15 C-0.9275 14.67 0.145 14.34 1.25 14 C5 13 5 13 9 13 C8.30910921 22.4997483 5.46018445 29.2014104 -1.51171875 35.78515625 C-3 37 -3 37 -4 37 C-4.70132913 30.29980211 -5.11044961 23.73742646 -5 17 C-6.13179687 17.30035156 -7.26359375 17.60070312 -8.4296875 17.91015625 C-9.91136221 18.29464146 -11.39313837 18.67873584 -12.875 19.0625 C-13.62136719 19.26166016 -14.36773437 19.46082031 -15.13671875 19.66601562 C-20.7734375 21.11328125 -20.7734375 21.11328125 -23 20 C-23.02736707 18.60427948 -23.04655989 17.20839779 -23.0625 15.8125 C-23.07410156 15.03519531 -23.08570313 14.25789063 -23.09765625 13.45703125 C-22.99518573 10.87887289 -22.56697553 8.51344269 -22 6 C-21.28972656 5.80664062 -20.57945313 5.61328125 -19.84765625 5.4140625 C-18.92855469 5.15367188 -18.00945313 4.89328125 -17.0625 4.625 C-15.68771484 4.24214844 -15.68771484 4.24214844 -14.28515625 3.8515625 C-11.83254913 3.23339896 -11.83254913 3.23339896 -11 1 C-3.88059701 -1.55223881 -3.88059701 -1.55223881 0 0 Z " fill="#F5E6E7" transform="translate(63,78)"/>
<path d="M0 0 C7.1516889 1.66872741 10.73447616 4.08902186 15 10 C17.87943327 13.735481 20.52608375 16.49213858 24.3125 19.3125 C29.16696258 22.961492 33.35863311 27.12830751 37 32 C37 32.66 37 33.32 37 34 C42.01463616 32.7171861 44.51701767 30.78152367 48 27 C48.33 27 48.66 27 49 27 C49.43290439 31.41562483 49.50000327 33.34721796 46.75 36.9375 C44 39 44 39 40 39 C39.91298961 42.60401481 39.85960612 46.20776012 39.8125 49.8125 C39.78736328 50.83666016 39.76222656 51.86082031 39.73632812 52.91601562 C39.72182617 54.39038086 39.72182617 54.39038086 39.70703125 55.89453125 C39.68346558 57.25348511 39.68346558 57.25348511 39.65942383 58.63989258 C40.0704482 61.48818837 40.94253509 62.09584547 43 64 C43.46078556 66.70055337 43.73799493 69.15936388 43.875 71.875 C43.93429688 72.58269531 43.99359375 73.29039063 44.0546875 74.01953125 C44.32411897 78.54092809 44.0476309 81.54601832 41 85 C39.68 85 38.36 85 37 85 C37.33 83.02 37.66 81.04 38 79 C38.33 79.99 38.66 80.98 39 82 C39.66 82 40.32 82 41 82 C41.22759004 70.66317129 40.06704864 63.67345549 32 55 C32.495 54.01 32.495 54.01 33 53 C33.66 53.66 34.32 54.32 35 55 C34.89171875 53.96939453 34.89171875 53.96939453 34.78125 52.91796875 C34.6884375 52.01691406 34.595625 51.11585937 34.5 50.1875 C34.36078125 48.84751953 34.36078125 48.84751953 34.21875 47.48046875 C34 45 34 45 34 42 C33.01 41.67 32.02 41.34 31 41 C31.33 40.01 31.66 39.02 32 38 C32.66 37.67 33.32 37.34 34 37 C33.67 35.35 33.34 33.7 33 32 C31.68 32 30.36 32 29 32 C28.67 32.99 28.34 33.98 28 35 C27 34 27 34 26.9375 31.4375 C26.958125 30.633125 26.97875 29.82875 27 29 C27.66 29 28.32 29 29 29 C27.36533439 24.95225659 26.43611284 22.66860942 22.390625 20.78515625 C20.4614255 20.1497453 18.51681562 19.5589058 16.55859375 19.01953125 C13.57456565 17.83047578 12.55512625 16.78037724 11 14 C11 13.01 11 12.02 11 11 C10.34 11 9.68 11 9 11 C9.144375 12.03125 9.28875 13.0625 9.4375 14.125 C8.95356558 18.4112763 8.61338015 18.81273886 5.5 21.4375 C4.34876167 22.31234976 3.18653894 23.17366038 2 24 C1.67 23.01 1.34 22.02 1 21 C1.66 20.01 2.32 19.02 3 18 C3.66 18 4.32 18 5 18 C4.690625 17.195625 4.38125 16.39125 4.0625 15.5625 C2.99479864 11.98256016 2.59979081 8.75697198 2.34375 5.05078125 C2.09289915 2.69570248 2.09289915 2.69570248 0 0 Z " fill="#272324" transform="translate(69,34)"/>
<path d="M0 0 C-1.26839526 0.50615298 -2.53983102 1.00469099 -3.8125 1.5 C-4.87404297 1.91765625 -4.87404297 1.91765625 -5.95703125 2.34375 C-8 3 -8 3 -11 3 C-11.33 7.62 -11.66 12.24 -12 17 C-10.02 17 -8.04 17 -6 17 C-6 17.99 -6 18.98 -6 20 C-5.34 20 -4.68 20 -4 20 C-4.020625 20.7425 -4.04125 21.485 -4.0625 22.25 C-4.00671312 24.70462279 -3.6930096 26.66109261 -3 29 C-7.75 30 -7.75 30 -10 30 C-11.66965451 30.31802943 -13.33678518 30.64984951 -15 31 C-15.09202608 27.04287849 -14.78947104 23.9473552 -14 20 C-20.435 20.495 -20.435 20.495 -27 21 C-26.505 16.545 -26.505 16.545 -26 12 C-26.66 12 -27.32 12 -28 12 C-28.33 10.02 -28.66 8.04 -29 6 C-24.92122301 4.79644841 -20.83637596 3.61496837 -16.75 2.4375 C-15.59113281 2.09525391 -14.43226562 1.75300781 -13.23828125 1.40039062 C-12.12324219 1.08134766 -11.00820313 0.76230469 -9.859375 0.43359375 C-8.83295898 0.13509521 -7.80654297 -0.16340332 -6.74902344 -0.47094727 C-4.02871657 -0.99447346 -2.57206635 -0.92820386 0 0 Z " fill="#F6E5E6" transform="translate(52,81)"/>
<path d="M0 0 C2 3 2 3 2 5 C2.99 5.33 3.98 5.66 5 6 C6.37482707 7.63260714 7.70647667 9.30225062 9 11 C9.556875 11.495 10.11375 11.99 10.6875 12.5 C12.45843056 14.52392064 12.64578245 16.37879014 13 19 C14.32 19 15.64 19 17 19 C17.33 18.34 17.66 17.68 18 17 C19.65 17.33 21.3 17.66 23 18 C23.12117188 18.73605469 23.24234375 19.47210938 23.3671875 20.23046875 C23.53476563 21.20628906 23.70234375 22.18210937 23.875 23.1875 C24.11863281 24.63189453 24.11863281 24.63189453 24.3671875 26.10546875 C24.98039517 28.91032604 25.85666343 31.37224747 27 34 C27.66 34 28.32 34 29 34 C30.69140625 35.64453125 30.69140625 35.64453125 32.5625 37.8125 C33.49255859 38.87404297 33.49255859 38.87404297 34.44140625 39.95703125 C36 42 36 42 37 45 C36.34 45 35.68 45 35 45 C35.495 46.794375 35.495 46.794375 36 48.625 C36.89265823 52.15791497 37.18296045 55.34079109 37 59 C36.01 59.495 36.01 59.495 35 60 C34.01 53.565 34.01 53.565 33 47 C32.34 47 31.68 47 31 47 C29.6328125 45.42578125 29.6328125 45.42578125 28.125 43.3125 C26.41176084 40.93647489 24.71661444 38.66803406 22.8125 36.4375 C21 34 21 34 19.875 30.5 C17.47220827 26.01478877 15.15137976 25.4303488 10.63671875 23.453125 C6.82893299 21.35461196 4.48267039 18.44435074 1.7890625 15.0859375 C0.06751054 12.92205125 0.06751054 12.92205125 -2.2265625 11.3515625 C-2.81179687 10.90554687 -3.39703125 10.45953125 -4 10 C-4 9.34 -4 8.68 -4 8 C-3.34 7.67 -2.68 7.34 -2 7 C-1.26924352 4.6859378 -0.59861742 2.35171131 0 0 Z " fill="#292425" transform="translate(67,54)"/>
<path d="M0 0 C0.66 0.33 1.32 0.66 2 1 C0.70982586 1.98113243 -0.58219106 2.95984199 -1.875 3.9375 C-2.59429687 4.48277344 -3.31359375 5.02804688 -4.0546875 5.58984375 C-6 7 -6 7 -8 8 C-5.03824877 7.38722388 -3.61941217 6.74627478 -1 5 C2.79883252 4.5004275 4.50326509 4.68656727 7.7734375 6.75 C9.06121094 7.86375 9.06121094 7.86375 10.375 9 C11.68597656 10.11375 11.68597656 10.11375 13.0234375 11.25 C13.67570312 11.8275 14.32796875 12.405 15 13 C14.67 13.66 14.34 14.32 14 15 C10 13.66666667 6 12.33333333 2 11 C2 11.99 2 12.98 2 14 C1.34 14 0.68 14 0 14 C-0.66 17.96 -1.32 21.92 -2 26 C-2.99 25.67 -3.98 25.34 -5 25 C-5.33 25.99 -5.66 26.98 -6 28 C-8.47186455 25.03653214 -9.66248361 22.45958311 -10.6875 18.75 C-10.93886719 17.85796875 -11.19023438 16.9659375 -11.44921875 16.046875 C-11.63097656 15.37140625 -11.81273437 14.6959375 -12 14 C-12.99 14.33 -13.98 14.66 -15 15 C-17.6875 14.0625 -17.6875 14.0625 -20 13 C-18.95831408 9.97911083 -18.09412504 9.05691281 -15.3125 7.375 C-12 6 -12 6 -8.4375 5.0625 C-4.82222279 3.94505068 -2.77628442 2.52389493 0 0 Z " fill="#362325" transform="translate(49,48)"/>
<path d="M0 0 C0.66 0.33 1.32 0.66 2 1 C1.67 6.94 1.34 12.88 1 19 C5.88088224 18.56852523 5.88088224 18.56852523 7.66015625 16.00390625 C8.12292969 15.19824219 8.58570313 14.39257812 9.0625 13.5625 C11.02317298 10.17884552 12.31630388 8.44971267 16 7 C15.690625 7.804375 15.690625 7.804375 15.375 8.625 C14.85024607 11.94844157 15.68176299 13.92411364 17 17 C18.31321858 18.6825613 19.64613064 20.34997172 21 22 C22.25 24.8125 22.25 24.8125 23 27 C25.40575607 24.81482901 26.79535581 22.74080329 28.1875 19.8125 C28.53167969 19.09707031 28.87585938 18.38164063 29.23046875 17.64453125 C29.61138672 16.83048828 29.61138672 16.83048828 30 16 C30.66 16 31.32 16 32 16 C32.495 20.455 32.495 20.455 33 25 C31.68 25.33 30.36 25.66 29 26 C27.70339566 28.49034386 27.70339566 28.49034386 27 31 C24.07981037 31.34764162 21.87198027 31.56494496 19.3359375 29.921875 C17.85627519 28.65359302 16.4257798 27.32856754 15 26 C14.34 25.67 13.68 25.34 13 25 C13 23.68 13 22.36 13 21 C12.7018576 19.65835921 12.37756808 18.32148827 12 17 C11.34 17 10.68 17 10 17 C10.061875 17.9075 10.12375 18.815 10.1875 19.75 C9.98327924 23.28982642 9.35448165 24.44931155 7 27 C6.67 26.34 6.34 25.68 6 25 C5.67 25.99 5.34 26.98 5 28 C4.34 28 3.68 28 3 28 C2.9175 27.071875 2.835 26.14375 2.75 25.1875 C2.5025 24.135625 2.255 23.08375 2 22 C0.948125 21.3503125 0.948125 21.3503125 -0.125 20.6875 C-0.74375 20.130625 -1.3625 19.57375 -2 19 C-2.12408759 15.9435268 -1.50416028 13.00662859 -1 10 C-0.79928191 8.14721763 -0.61145188 6.29298673 -0.4375 4.4375 C-0.35371094 3.59058594 -0.26992188 2.74367188 -0.18359375 1.87109375 C-0.12300781 1.25363281 -0.06242187 0.63617187 0 0 Z " fill="#2B2728" transform="translate(38,22)"/>
<path d="M0 0 C6.61755059 0.62039537 11.9959393 4.59479136 16.3125 9.4375 C22.2787705 16.91155082 23.90263876 24.59113832 23 34 C21.98828125 36.30859375 21.98828125 36.30859375 21 38 C20.67 38 20.34 38 20 38 C20.33 34.7 20.66 31.4 21 28 C17.37 28.66 13.74 29.32 10 30 C9.67 28.68 9.34 27.36 9 26 C7.68 25.67 6.36 25.34 5 25 C5.33 23.68 5.66 22.36 6 21 C7.98 21 9.96 21 12 21 C12 19.02 12 17.04 12 15 C11.34 14.67 10.68 14.34 10 14 C11.65 13.67 13.3 13.34 15 13 C11.4536235 7.25824757 5.83598555 4.92805482 0 2 C0 1.34 0 0.68 0 0 Z " fill="#FEF0F1" transform="translate(51,63)"/>
<path d="M0 0 C0 0.66 0 1.32 0 2 C-1.75 3.5078125 -1.75 3.5078125 -4 5.125 C-4.7425 5.66382813 -5.485 6.20265625 -6.25 6.7578125 C-6.8275 7.16773438 -7.405 7.57765625 -8 8 C-8 7.01 -8 6.02 -8 5 C-11.91920713 6.30640238 -13.78939051 8.64473834 -16 12 C-17.19793456 14.63735001 -18.09565935 17.23938118 -19 20 C-19.66 19.67 -20.32 19.34 -21 19 C-20.40895235 14.15340923 -19.02055843 10.39251833 -17 6 C-17.66 6 -18.32 6 -19 6 C-19 6.99 -19 7.98 -19 9 C-19.66 9 -20.32 9 -21 9 C-22.84777994 14.57926258 -22.84777994 14.57926258 -22 20 C-23.65 20 -25.3 20 -27 20 C-26.97679687 20.61746094 -26.95359375 21.23492188 -26.9296875 21.87109375 C-26.80166892 27.87882303 -27.43159253 33.20249382 -29 39 C-29.66 38.67 -30.32 38.34 -31 38 C-30.7525 36.576875 -30.7525 36.576875 -30.5 35.125 C-29.48262475 27.81169383 -29.68135709 21.0364199 -31.66015625 13.91015625 C-32 12 -32 12 -31 9 C-28.03 9.495 -28.03 9.495 -25 10 C-24.484375 9.071875 -23.96875 8.14375 -23.4375 7.1875 C-20.91963095 3.38371926 -18.28148165 2.40121218 -14 1 C-13.01 1 -12.02 1 -11 1 C-11 1.66 -11 2.32 -11 3 C-4.59183673 -0.20408163 -4.59183673 -0.20408163 0 0 Z " fill="#B4B1B1" transform="translate(65,2)"/>
<path d="M0 0 C-0.75 7.75 -0.75 7.75 -3 10 C-3.46162427 12.43252661 -3.46162427 12.43252661 -3.625 15.125 C-3.69976562 16.03507812 -3.77453125 16.94515625 -3.8515625 17.8828125 C-3.90054687 18.58148438 -3.94953125 19.28015625 -4 20 C-5.74816858 20.50636607 -7.49862263 21.00484619 -9.25 21.5 C-10.22453125 21.7784375 -11.1990625 22.056875 -12.203125 22.34375 C-15 23 -15 23 -19 23 C-17.29063981 12.87878834 -13.0114541 7.29471394 -5 1 C-3 0 -3 0 0 0 Z " fill="#EB1E26" transform="translate(35,66)"/>
<path d="M0 0 C0.66 0 1.32 0 2 0 C3.75 2.25 3.75 2.25 5 5 C3.24780995 10.1950898 -1.41534446 12.48952559 -6 15 C-7.52601332 15.54591159 -9.06836247 16.04876202 -10.625 16.5 C-15.50288636 17.95406664 -18.36247466 20.54880669 -22 24 C-22.67160156 24.54914062 -23.34320312 25.09828125 -24.03515625 25.6640625 C-30.75942286 31.16916301 -36.32596703 38.10221151 -37.34375 47.0078125 C-37.44817708 49.0911328 -37.55234246 51.17446623 -37.65625 53.2578125 C-38 56 -38 56 -40 59 C-41.72532714 49.58912467 -39.59716268 41.75064881 -36 33 C-35.67 32.01 -35.34 31.02 -35 30 C-34.401875 29.71125 -33.80375 29.4225 -33.1875 29.125 C-30.29299613 27.63639801 -28.94841481 25.57693571 -27 23 C-24.53571429 20.125 -24.53571429 20.125 -22.125 19.5625 C-18.33062781 18.55810736 -15.72087492 15.72087492 -13 13 C-12.34 12.67 -11.68 12.34 -11 12 C-11.66 9.03 -12.32 6.06 -13 3 C-10 3 -10 3 -7 5 C-6.8125 8.125 -6.8125 8.125 -7 11 C-6.34 11 -5.68 11 -5 11 C-4.67 9.68 -4.34 8.36 -4 7 C-3.34 7.33 -2.68 7.66 -2 8 C-1.34 5.36 -0.68 2.72 0 0 Z M-10 6 C-10 7.98 -10 9.96 -10 12 C-9.67 12 -9.34 12 -9 12 C-9 10.02 -9 8.04 -9 6 C-9.33 6 -9.66 6 -10 6 Z " fill="#F6F5F5" transform="translate(48,39)"/>
<path d="M0 0 C-0.69089079 9.4997483 -3.53981555 16.2014104 -10.51171875 22.78515625 C-12 24 -12 24 -13 24 C-13.66 17.07 -14.32 10.14 -15 3 C-4.5 0 -4.5 0 0 0 Z " fill="#EC2129" transform="translate(72,91)"/>
<path d="M0 0 C3.57887837 3.57887837 3.27694158 9.1451792 4 14 C3.67 9.38 3.34 4.76 3 0 C7 1 7 1 9 4 C9.66 3.01 10.32 2.02 11 1 C11.19441368 3.2910905 11.38033135 5.58290337 11.5625 7.875 C11.66691406 9.15117188 11.77132812 10.42734375 11.87890625 11.7421875 C12 15 12 15 11 17 C10.01 16.67 9.02 16.34 8 16 C7.67 17.65 7.34 19.3 7 21 C8.65 21 10.3 21 12 21 C12 21.99 12 22.98 12 24 C10.35 24.33 8.7 24.66 7 25 C6.01 23.35 5.02 21.7 4 20 C3.67 20.66 3.34 21.32 3 22 C0.69 22 -1.62 22 -4 22 C-4 19.69 -4 17.38 -4 15 C-3.34 15 -2.68 15 -2 15 C-0.68774441 12.37548883 -0.93841479 10.42529726 -1 7.5 C-1.11111111 2.22222222 -1.11111111 2.22222222 0 0 Z M6 6 C7 9 7 9 7 9 Z " fill="#ECE7E8" transform="translate(99,99)"/>
<path d="M0 0 C0 0.66 0 1.32 0 2 C0.66 2.33 1.32 2.66 2 3 C1.34 3 0.68 3 0 3 C-0.33 5.64 -0.66 8.28 -1 11 C-0.01 11.33 0.98 11.66 2 12 C-1.87084337 14.16047072 -4.55126044 15.51618963 -9 15 C-11.203125 13.609375 -11.203125 13.609375 -13.25 11.75 C-14.27867188 10.84507813 -14.27867188 10.84507813 -15.328125 9.921875 C-17.08858582 7.8981677 -17.60583381 6.62004582 -18 4 C-16.1291122 3.32187886 -14.25305707 2.6580054 -12.375 2 C-11.33085937 1.62875 -10.28671875 1.2575 -9.2109375 0.875 C-5.98225494 -0.00483564 -3.32755706 -0.15988262 0 0 Z " fill="#474142" transform="translate(38,101)"/>
<path d="M0 0 C1.91605372 3.57827126 2.96329971 7.17214532 4.0234375 11.07421875 C4.83076877 13.2089343 4.83076877 13.2089343 7.1015625 13.76953125 C7.72804688 13.84558594 8.35453125 13.92164062 9 14 C8.34 15.98 7.68 17.96 7 20 C8.98 19.67 10.96 19.34 13 19 C10.29259338 21.70740662 7.7373234 22.1010554 4.0625 23.125 C2.81597656 23.47820312 1.56945313 23.83140625 0.28515625 24.1953125 C-3 25 -3 25 -6 25 C-6.35923781 19.01270322 -5.94425973 15.34328617 -3 10 C-1.89375925 6.69622696 -0.93512067 3.35582313 0 0 Z " fill="#2D1F20" transform="translate(37,60)"/>
<path d="M0 0 C7.18353048 1.67615711 10.68442439 4.1128564 15 10 C15.95273358 11.10900205 16.91070948 12.21353203 17.875 13.3125 C20 16 20 16 20 18 C17.1875 18.25 17.1875 18.25 14 18 C12.125 16.1875 12.125 16.1875 11 14 C11 13.01 11 12.02 11 11 C10.34 11 9.68 11 9 11 C9.144375 12.03125 9.28875 13.0625 9.4375 14.125 C8.95356558 18.4112763 8.61338015 18.81273886 5.5 21.4375 C4.34876167 22.31234976 3.18653894 23.17366038 2 24 C1.67 23.01 1.34 22.02 1 21 C1.66 20.01 2.32 19.02 3 18 C3.66 18 4.32 18 5 18 C4.690625 17.195625 4.38125 16.39125 4.0625 15.5625 C2.99479864 11.98256016 2.59979081 8.75697198 2.34375 5.05078125 C2.09289915 2.69570248 2.09289915 2.69570248 0 0 Z " fill="#292526" transform="translate(69,34)"/>
<path d="M0 0 C-0.99 5.28 -1.98 10.56 -3 16 C-3.99 15.67 -4.98 15.34 -6 15 C-6.33 15.99 -6.66 16.98 -7 18 C-10.88698768 13.7596498 -11.89129015 8.60903648 -12.125 3 C-12.08375 2.34 -12.0425 1.68 -12 1 C-7.77370786 -0.40876405 -4.89096249 0 0 0 Z " fill="#E51E25" transform="translate(50,58)"/>
<path d="M0 0 C0.33 0 0.66 0 1 0 C2.12880057 3.31114834 3.21302675 6.58978257 4 10 C4.66 10 5.32 10 6 10 C7.69140625 11.64453125 7.69140625 11.64453125 9.5625 13.8125 C10.18253906 14.52019531 10.80257812 15.22789063 11.44140625 15.95703125 C13 18 13 18 14 21 C13.34 21 12.68 21 12 21 C12.33 22.19625 12.66 23.3925 13 24.625 C13.89265823 28.15791497 14.18296045 31.34079109 14 35 C13.01 35.495 13.01 35.495 12 36 C11.34 31.71 10.68 27.42 10 23 C9.34 23 8.68 23 8 23 C6.6328125 21.42578125 6.6328125 21.42578125 5.125 19.3125 C3.36928811 16.87854244 1.62159177 14.55000103 -0.3125 12.25 C-2.91578947 8.77894737 -2.91578947 8.77894737 -3 6 C-1.5625 2.75 -1.5625 2.75 0 0 Z " fill="#322E2F" transform="translate(90,78)"/>
<path d="M0 0 C0.99 0.33 1.98 0.66 3 1 C-0.38891376 10.03710335 -5.24429384 16.77864977 -14.0234375 20.96484375 C-21.34446854 23.83246782 -29.04411658 24.55265049 -36.43359375 21.65234375 C-39.35733117 20.19564066 -42.19433321 18.67146107 -45 17 C-45 16.34 -45 15.68 -45 15 C-42.41917101 15.49631327 -40.65053237 16.19910931 -38.33984375 17.515625 C-34.52518946 19.21102691 -31.28683689 19.5003942 -27.1875 19.4375 C-26.48044922 19.42775146 -25.77339844 19.41800293 -25.04492188 19.40795898 C-16.37240332 19.11429588 -11.48019851 16.88024994 -5.5625 10.625 C-2.76667454 7.26222783 -0.89467919 4.36156105 0 0 Z " fill="#F6DADB" transform="translate(70,99)"/>
<path d="M0 0 C1 2 1 2 0.0625 5.125 C-0.288125 6.07375 -0.63875 7.0225 -1 8 C0.32 7.67 1.64 7.34 3 7 C3.3403125 8.5778125 3.3403125 8.5778125 3.6875 10.1875 C4.81684567 14.19667711 6.94824308 16.17154237 10 19 C11.05287814 20.63377642 12.0727001 22.29181597 13 24 C11.88625 24.226875 10.7725 24.45375 9.625 24.6875 C5.83961627 25.60623658 5.83961627 25.60623658 4.5625 28.625 C4.376875 29.40875 4.19125 30.1925 4 31 C3.34 31 2.68 31 2 31 C2.33 29.35 2.66 27.7 3 26 C3.66 26 4.32 26 5 26 C5 25.01 5 24.02 5 23 C5.99 23 6.98 23 8 23 C7.67 21.68 7.34 20.36 7 19 C5.68 19.33 4.36 19.66 3 20 C3 19.01 3 18.02 3 17 C2.01 17.33 1.02 17.66 0 18 C0 17.01 0 16.02 0 15 C-0.66 15 -1.32 15 -2 15 C-1.34 13.68 -0.68 12.36 0 11 C-0.928125 11.495 -0.928125 11.495 -1.875 12 C-4 13 -4 13 -6 13 C-6 12.34 -6 11.68 -6 11 C-5.34 11 -4.68 11 -4 11 C-3.896875 9.9275 -3.79375 8.855 -3.6875 7.75 C-3.02599507 4.14179128 -2.42516579 2.63604977 0 0 Z " fill="#413E3E" transform="translate(56,10)"/>
<path d="M0 0 C0 0.99 0 1.98 0 3 C0.66 3 1.32 3 2 3 C1.979375 3.7425 1.95875 4.485 1.9375 5.25 C1.99328688 7.70462279 2.3069904 9.66109261 3 12 C-1.75 13 -1.75 13 -4 13 C-5.66965451 13.31802943 -7.33678518 13.64984951 -9 14 C-9.08912219 10.16774573 -8.87867729 6.73437848 -8 3 C-8.66 2.67 -9.32 2.34 -10 2 C-3.375 0 -3.375 0 0 0 Z " fill="#555253" transform="translate(46,98)"/>
<path d="M0 0 C0 0.66 0 1.32 0 2 C-1.75 3.5078125 -1.75 3.5078125 -4 5.125 C-4.7425 5.66382813 -5.485 6.20265625 -6.25 6.7578125 C-7.11625 7.37269531 -7.11625 7.37269531 -8 8 C-8 7.01 -8 6.02 -8 5 C-11.91920713 6.30640238 -13.78939051 8.64473834 -16 12 C-17.19793456 14.63735001 -18.09565935 17.23938118 -19 20 C-19.66 19.67 -20.32 19.34 -21 19 C-20.40895235 14.15340923 -19.02055843 10.39251833 -17 6 C-17.66 6 -18.32 6 -19 6 C-19 6.99 -19 7.98 -19 9 C-19.66 9 -20.32 9 -21 9 C-21.33 7.68 -21.66 6.36 -22 5 C-20.73308493 4.32591692 -19.46129251 3.66099503 -18.1875 3 C-17.47980469 2.62875 -16.77210937 2.2575 -16.04296875 1.875 C-14 1 -14 1 -11 1 C-11 1.66 -11 2.32 -11 3 C-4.59183673 -0.20408163 -4.59183673 -0.20408163 0 0 Z " fill="#7D7A7B" transform="translate(65,2)"/>
<path d="M0 0 C-1.87707571 1.95528719 -3.77912407 3.81785805 -5.87109375 5.54296875 C-12.64821102 11.14145693 -18.31116587 17.97270136 -19.34375 27.0078125 C-19.44817708 29.0911328 -19.55234246 31.17446623 -19.65625 33.2578125 C-20 36 -20 36 -22 39 C-23.72532714 29.58912467 -21.59716268 21.75064881 -18 13 C-17.67 12.01 -17.34 11.02 -17 10 C-16.401875 9.71125 -15.80375 9.4225 -15.1875 9.125 C-12.29299613 7.63639801 -10.94841481 5.57693571 -9 3 C-6.3541025 -0.48777398 -4.25839793 -0.2838932 0 0 Z " fill="#F4E4E5" transform="translate(30,59)"/>
<path d="M0 0 C0.66 0.33 1.32 0.66 2 1 C0.68 2.65 -0.64 4.3 -2 6 C-1.34 6 -0.68 6 0 6 C0.33 7.32 0.66 8.64 1 10 C-0.65 11.32 -2.3 12.64 -4 14 C-4 13.01 -4 12.02 -4 11 C-4.94875 11.825 -5.8975 12.65 -6.875 13.5 C-9.75 16 -9.75 16 -12 16 C-12 15.01 -12 14.02 -12 13 C-12.66 12.67 -13.32 12.34 -14 12 C-13.67 10.35 -13.34 8.7 -13 7 C-12.01 7.33 -11.02 7.66 -10 8 C-9.195625 7.13375 -9.195625 7.13375 -8.375 6.25 C-5.77332145 3.7852519 -3.01855526 1.9208988 0 0 Z " fill="#C7C6C6" transform="translate(56,19)"/>
<path d="M0 0 C0 1.32 0 2.64 0 4 C-0.99 4.33 -1.98 4.66 -3 5 C-2.34 5.33 -1.68 5.66 -1 6 C-1 6.99 -1 7.98 -1 9 C-1.99 9.33 -2.98 9.66 -4 10 C-4.33 11.65 -4.66 13.3 -5 15 C-6.65 15.33 -8.3 15.66 -10 16 C-10.18451025 6.58997722 -10.18451025 6.58997722 -9 2 C-2.25 0 -2.25 0 0 0 Z " fill="#EE262E" transform="translate(50,82)"/>
<path d="M0 0 C0 1.32 0 2.64 0 4 C-1.65 4.33 -3.3 4.66 -5 5 C-5 6.32 -5 7.64 -5 9 C-3.68 9 -2.36 9 -1 9 C-1 10.32 -1 11.64 -1 13 C-3.76250036 14.38125018 -5.94731099 14.19079306 -9 14 C-9.66 13.34 -10.32 12.68 -11 12 C-11 8.65617333 -10.89478545 6.10678077 -8.73046875 3.4296875 C-5.60687322 0.66194462 -4.24820473 0 0 0 Z " fill="#EE272F" transform="translate(62,79)"/>
<path d="M0 0 C5.29540989 0.33096312 9.24413757 3.47229743 13 7 C13.33 7.99 13.66 8.98 14 10 C10.7 10.66 7.4 11.32 4 12 C3.67 10.68 3.34 9.36 3 8 C2.34 8 1.68 8 1 8 C0.67 5.36 0.34 2.72 0 0 Z " fill="#E81E26" transform="translate(52,66)"/>
<path d="M0 0 C-0.33 0.99 -0.66 1.98 -1 3 C-2.19625 3.556875 -3.3925 4.11375 -4.625 4.6875 C-11.88748117 8.14954299 -15.70622304 13.55367651 -18.4375 21 C-18.97680291 22.6607822 -19.50446273 24.32563805 -20 26 C-19.34 26.33 -18.68 26.66 -18 27 C-18.99 27 -19.98 27 -21 27 C-22.54448917 20.73830597 -20.89238825 17.44625593 -17.953125 11.91796875 C-14.11341447 6.18144122 -7.2390342 0 0 0 Z " fill="#FCDBDC" transform="translate(36,63)"/>
<path d="M0 0 C0.66 0.33 1.32 0.66 2 1 C1.67 6.94 1.34 12.88 1 19 C5.71058562 18.16537965 5.71058562 18.16537965 9 17 C9.6875 19.75 9.6875 19.75 10 23 C8.5625 25.375 8.5625 25.375 7 27 C6.67 26.34 6.34 25.68 6 25 C5.67 25.99 5.34 26.98 5 28 C4.34 28 3.68 28 3 28 C2.9175 27.071875 2.835 26.14375 2.75 25.1875 C2.5025 24.135625 2.255 23.08375 2 22 C0.948125 21.3503125 0.948125 21.3503125 -0.125 20.6875 C-0.74375 20.130625 -1.3625 19.57375 -2 19 C-2.12408759 15.9435268 -1.50416028 13.00662859 -1 10 C-0.79928191 8.14721763 -0.61145188 6.29298673 -0.4375 4.4375 C-0.35371094 3.59058594 -0.26992188 2.74367188 -0.18359375 1.87109375 C-0.12300781 1.25363281 -0.06242187 0.63617187 0 0 Z " fill="#393636" transform="translate(38,22)"/>
<path d="M0 0 C6.73357704 3.05935349 12.94408839 8.85071465 17 15 C16.8125 18.375 16.8125 18.375 16 21 C15.34 20.67 14.68 20.34 14 20 C13.375 17.4375 13.375 17.4375 13 15 C11.68 15 10.36 15 9 15 C8.67 15.99 8.34 16.98 8 18 C7 17 7 17 6.9375 14.4375 C6.958125 13.633125 6.97875 12.82875 7 12 C7.66 12 8.32 12 9 12 C6.35643406 6.31986522 6.35643406 6.31986522 1.25 3.0625 C0.1775 2.711875 -0.895 2.36125 -2 2 C-1.34 1.34 -0.68 0.68 0 0 Z " fill="#2F2B2C" transform="translate(89,51)"/>
<path d="M0 0 C2.5005665 0.35722379 3.67451223 0.58610814 5.265625 2.609375 C8.39519624 9.41495055 8.41201533 15.59516899 8 23 C7.34 23.33 6.68 23.66 6 24 C5.34 20.04 4.68 16.08 4 12 C3.67 12 3.34 12 3 12 C2.49440092 10.56445975 1.9957251 9.1264798 1.5 7.6875 C1.2215625 6.88699219 0.943125 6.08648437 0.65625 5.26171875 C0 3 0 3 0 0 Z " fill="#EE2830" transform="translate(70,75)"/>
<path d="M0 0 C0.33 0 0.66 0 1 0 C1.02578125 0.64066406 1.0515625 1.28132813 1.078125 1.94140625 C1.42617358 7.24914704 2.12144685 10.31118052 5.06640625 14.8203125 C7.28152796 19.99201926 7.32839483 26.46505433 7 32 C5.50390625 35.46484375 5.50390625 35.46484375 4 38 C2.02 38 0.04 38 -2 38 C-1.38125 37.7525 -0.7625 37.505 -0.125 37.25 C2.53387438 35.68595625 2.97468986 34.90738629 4 32 C4.05963472 29.24828385 4.00671871 26.66885432 3.8125 23.9375 C3.78091797 23.21755859 3.74933594 22.49761719 3.71679688 21.75585938 C3.447746 17.55632617 2.93727977 15.85874288 0 13 C-0.29296875 9.86328125 -0.29296875 9.86328125 -0.1875 6.3125 C-0.16042969 5.13300781 -0.13335937 3.95351562 -0.10546875 2.73828125 C-0.07066406 1.83464844 -0.03585938 0.93101563 0 0 Z " fill="#DED7D7" transform="translate(108,82)"/>
<path d="M0 0 C0.99 0.33 1.98 0.66 3 1 C3.4125 1.845625 3.825 2.69125 4.25 3.5625 C6.1950033 7.38304219 8.56788838 10.056792 11.4765625 13.16796875 C14.98683112 17.38929179 14.35589073 22.80234001 14 28 C13 31.125 13 31.125 12 33 C10.875 31.25 10.875 31.25 10 29 C10.309375 28.401875 10.61875 27.80375 10.9375 27.1875 C12.5649608 23.83684542 11.85977427 21.56192198 11 18 C8.70599037 13.70446919 8.70599037 13.70446919 4.875 10.9375 C3 10 3 10 1.8125 7.6875 C1.04050899 5.13399126 0.45055461 2.62823524 0 0 Z " fill="#E6E1E1" transform="translate(85,84)"/>
<path d="M0 0 C0.62109375 1.859375 0.62109375 1.859375 1 4 C-0.9375 6.25 -0.9375 6.25 -3 8 C-3.99 7.67 -4.98 7.34 -6 7 C-4.625 5.5 -4.625 5.5 -3 4 C-2.34 4 -1.68 4 -1 4 C-1 3.34 -1 2.68 -1 2 C-5.93133998 3.08656644 -9.78316189 4.1009238 -14 7 C-14 6.34 -14 5.68 -14 5 C-13.34 5 -12.68 5 -12 5 C-12 4.34 -12 3.68 -12 3 C-16.455 4.485 -16.455 4.485 -21 6 C-20.34 4.35 -19.68 2.7 -19 1 C-12.65758005 -0.15316726 -6.43311296 -0.09507063 0 0 Z " fill="#F2F1F1" transform="translate(66,0)"/>
<path d="M0 0 C-0.33 4.29 -0.66 8.58 -1 13 C-2.65 13.33 -4.3 13.66 -6 14 C-5.67 11.03 -5.34 8.06 -5 5 C-5.66 5 -6.32 5 -7 5 C-7 3.68 -7 2.36 -7 1 C-4 0 -4 0 0 0 Z " fill="#EE2B32" transform="translate(31,88)"/>
<path d="M0 0 C0 3.96 0 7.92 0 12 C-4.34322104 9.39406737 -6.23783227 7.98979783 -9 4 C-9 3.34 -9 2.68 -9 2 C-5.62902617 0.50178941 -3.79557881 0 0 0 Z " fill="#E52129" transform="translate(29,103)"/>
<path d="M0 0 C-0.33 1.98 -0.66 3.96 -1 6 C-4.63 6 -8.26 6 -12 6 C-12 4.35 -12 2.7 -12 1 C-8.0186217 -0.3271261 -4.14954773 -0.06915913 0 0 Z " fill="#EE686E" transform="translate(50,58)"/>
<path d="M0 0 C0.33 0 0.66 0 1 0 C1.48337596 6.28388747 1.48337596 6.28388747 -0.6875 9.5 C-3 11 -3 11 -5.75 10.75 C-6.4925 10.5025 -7.235 10.255 -8 10 C-8 9.34 -8 8.68 -8 8 C-8.66 7.67 -9.32 7.34 -10 7 C-8.9171875 6.6596875 -8.9171875 6.6596875 -7.8125 6.3125 C-4.47197883 4.75359012 -2.5175932 2.65745948 0 0 Z " fill="#575454" transform="translate(117,61)"/>
<path d="M0 0 C3.93769336 3.93769336 3.14356123 9.52321262 3.23046875 14.79296875 C3 17 3 17 1 19 C0.01 19 -0.98 19 -2 19 C-1.835 18.236875 -1.67 17.47375 -1.5 16.6875 C-0.93769863 12.54052738 -0.97120486 8.56737782 -1.0625 4.390625 C-1 2 -1 2 0 0 Z " fill="#BAB9B9" transform="translate(99,99)"/>
<path d="M0 0 C0 1.98 0 3.96 0 6 C-1.32 5.67 -2.64 5.34 -4 5 C-3.01 5 -2.02 5 -1 5 C-1 3.68 -1 2.36 -1 1 C-7.027746 3.18061427 -7.027746 3.18061427 -11 8 C-11.71162443 9.64797236 -12.39031953 11.31165408 -13 13 C-13.33 12.01 -13.66 11.02 -14 10 C-14.99 9.67 -15.98 9.34 -17 9 C-15.68 8.67 -14.36 8.34 -13 8 C-12.7834375 6.824375 -12.7834375 6.824375 -12.5625 5.625 C-12 3 -12 3 -11 1 C-3.88059701 -1.55223881 -3.88059701 -1.55223881 0 0 Z " fill="#F9DFE0" transform="translate(63,78)"/>
<path d="M0 0 C0.66 0 1.32 0 2 0 C2.33 2.97 2.66 5.94 3 9 C1.68 9.33 0.36 9.66 -1 10 C-2.29660434 12.49034386 -2.29660434 12.49034386 -3 15 C-3.99 15 -4.98 15 -6 15 C-6 14.34 -6 13.68 -6 13 C-5.34 13 -4.68 13 -4 13 C-4 12.34 -4 11.68 -4 11 C-4.66 10.67 -5.32 10.34 -6 10 C-5 8.33333333 -4 6.66666667 -3 5 C-2.484375 4.071875 -1.96875 3.14375 -1.4375 2.1875 C-0.963125 1.465625 -0.48875 0.74375 0 0 Z " fill="#393637" transform="translate(68,38)"/>
<path d="M0 0 C-3.1877224 3.32054417 -6.61442208 6.31454033 -10.09765625 9.31640625 C-11.7994206 10.82248517 -13.41354255 12.37400467 -15 14 C-15.99 13.67 -16.98 13.34 -18 13 C-17.67 12.01 -17.34 11.02 -17 10 C-16.401875 9.71125 -15.80375 9.4225 -15.1875 9.125 C-12.29299613 7.63639801 -10.94841481 5.57693571 -9 3 C-6.3541025 -0.48777398 -4.25839793 -0.2838932 0 0 Z " fill="#F2E2E2" transform="translate(30,59)"/>
<path d="M0 0 C-0.33 2.97 -0.66 5.94 -1 9 C-1.99 8.67 -2.98 8.34 -4 8 C-4.33 8.66 -4.66 9.32 -5 10 C-5.66 10 -6.32 10 -7 10 C-7 7.36 -7 4.72 -7 2 C-2.25 0 -2.25 0 0 0 Z " fill="#DEDEDE" transform="translate(57,99)"/>
<path d="M0 0 C0.33 0 0.66 0 1 0 C1.2498764 2.5619857 1.47541116 5.12234131 1.6875 7.6875 C1.76033203 8.40873047 1.83316406 9.12996094 1.90820312 9.87304688 C2.17708471 13.33687432 2.08792728 15.78422925 0.76953125 19.01953125 C0.18558594 19.67308594 -0.39835937 20.32664062 -1 21 C-2.32 21 -3.64 21 -5 21 C-4.67 19.02 -4.34 17.04 -4 15 C-3.67 15.99 -3.34 16.98 -3 18 C-2.34 18 -1.68 18 -1 18 C-1.01160156 17.3709375 -1.02320312 16.741875 -1.03515625 16.09375 C-1.09286873 10.61930912 -0.80228473 5.41542194 0 0 Z " fill="#4E4A4B" transform="translate(111,98)"/>
<path d="M0 0 C0.66 0 1.32 0 2 0 C3.75 2.25 3.75 2.25 5 5 C4.03969728 8.36105951 2.98299429 9.01133714 0 11 C-1.32 11 -2.64 11 -4 11 C-4.33 10.01 -4.66 9.02 -5 8 C-4.01 8 -3.02 8 -2 8 C-1.34 5.36 -0.68 2.72 0 0 Z " fill="#DCDADA" transform="translate(48,39)"/>
<path d="M0 0 C0.66 0 1.32 0 2 0 C1.63021176 7.21087059 -2.87776008 13.16914498 -8 18 C-8.99 17.67 -9.98 17.34 -11 17 C-10.45730469 16.443125 -9.91460937 15.88625 -9.35546875 15.3125 C-4.75233685 10.40249264 -1.8835363 6.47465602 0 0 Z " fill="#FCE6E7" transform="translate(76,101)"/>
<path d="M0 0 C0.33 5.61 0.66 11.22 1 17 C0.67 17 0.34 17 0 17 C-1.10228696 12.59085217 -1.07654536 8.51617599 -1 4 C-2.32 4.99 -3.64 5.98 -5 7 C-5.12375 6.195625 -5.2475 5.39125 -5.375 4.5625 C-5.684375 3.2940625 -5.684375 3.2940625 -6 2 C-6.66 1.67 -7.32 1.34 -8 1 C-5.23735711 0.40267181 -2.83967231 0 0 0 Z " fill="#372123" transform="translate(58,95)"/>
<path d="M0 0 C1 3 1 3 -0.4375 6.1875 C-1.2109375 7.5796875 -1.2109375 7.5796875 -2 9 C-3.98 8.34 -5.96 7.68 -8 7 C-8 8.65 -8 10.3 -8 12 C-10.1519437 8.77208445 -10.20086443 7.71599191 -10 4 C-6.98968256 3.06576355 -6.13349732 2.95550089 -3 4 C-2.01 2.68 -1.02 1.36 0 0 Z " fill="#FBFAFA" transform="translate(43,8)"/>
<path d="M0 0 C1.32 1.32 2.64 2.64 4 4 C4.66 3.01 5.32 2.02 6 1 C6.19441368 3.2910905 6.38033135 5.58290337 6.5625 7.875 C6.66691406 9.15117188 6.77132812 10.42734375 6.87890625 11.7421875 C7 15 7 15 6 17 C5.34 17 4.68 17 4 17 C3.23586693 14.51656752 3.01320516 12.68967882 3.125 10.0625 C2.98026424 6.51647381 1.93897091 4.90845636 0 2 C0 1.34 0 0.68 0 0 Z " fill="#959394" transform="translate(104,99)"/>
<path d="M0 0 C1.65 0 3.3 0 5 0 C5.125 2.875 5.125 2.875 5 6 C4.34 6.66 3.68 7.32 3 8 C1.68 8 0.36 8 -1 8 C-1.125 2.25 -1.125 2.25 0 0 Z " fill="#D6D5D5" transform="translate(38,104)"/>
<path d="M0 0 C0.66 0 1.32 0 2 0 C2.33 0.99 2.66 1.98 3 3 C4.32 3 5.64 3 7 3 C7 4.32 7 5.64 7 7 C4.29120665 8.35439668 1.99066732 8.06501451 -1 8 C-1.04241723 5.66705225 -1.04092937 3.33297433 -1 1 C-0.67 0.67 -0.34 0.34 0 0 Z " fill="#EC1922" transform="translate(54,85)"/>
<path d="M0 0 C4.84688192 0.78175515 9.3766367 2.39844278 14 4 C10.94119149 6.03920567 9.6182016 6.83553629 6 7 C3.46993608 5.87961826 1.3373308 4.51239052 -1 3 C-0.67 2.01 -0.34 1.02 0 0 Z " fill="#F6E7E8" transform="translate(24,121)"/>
<path d="M0 0 C2.57584603 0.495355 4.37094845 1.20704099 6.6875 2.5 C10.4217713 4.19099078 13.29623801 4.49510557 17.375 4.6875 C19.24285156 4.78611328 19.24285156 4.78611328 21.1484375 4.88671875 C22.08945312 4.92410156 23.03046875 4.96148437 24 5 C24 5.33 24 5.66 24 6 C8.70143613 8.03577727 8.70143613 8.03577727 1.44140625 3.12890625 C0.96574219 2.75636719 0.49007813 2.38382812 0 2 C0 1.34 0 0.68 0 0 Z " fill="#D8C7C8" transform="translate(25,114)"/>
<path d="M0 0 C0 2.64 0 5.28 0 8 C-0.61875 8.144375 -1.2375 8.28875 -1.875 8.4375 C-4.03258322 8.93152225 -4.03258322 8.93152225 -6 10 C-6 7.03 -6 4.06 -6 1 C-2 0 -2 0 0 0 Z " fill="#E2E1E1" transform="translate(36,105)"/>
<path d="M0 0 C1.65 1.65 3.3 3.3 5 5 C2.66785852 6.20628008 0.50357861 7.1654738 -2 8 C-3.21869929 10.50447516 -3.21869929 10.50447516 -4 13 C-4.66 13 -5.32 13 -6 13 C-5.67 11.35 -5.34 9.7 -5 8 C-4.34 8 -3.68 8 -3 8 C-3 7.01 -3 6.02 -3 5 C-2.01 5 -1.02 5 0 5 C0 3.35 0 1.7 0 0 Z " fill="#3D393A" transform="translate(64,28)"/>
<path d="M0 0 C0.66 0 1.32 0 2 0 C1.48540897 3.77366756 0.73571995 6.6370426 -1 10 C-1.37668344 11.65740715 -1.72057545 13.32345271 -2 15 C-3.32 14.67 -4.64 14.34 -6 14 C-5.34 13.67 -4.68 13.34 -4 13 C-4.33 12.01 -4.66 11.02 -5 10 C-4.07796291 7.63477442 -3.08301035 5.29598193 -2 3 C-1.34 3 -0.68 3 0 3 C0 2.01 0 1.02 0 0 Z " fill="#E0E0E0" transform="translate(46,8)"/>
<path d="M0 0 C0.66 0.33 1.32 0.66 2 1 C-8.19361228 9.13320129 -8.19361228 9.13320129 -14 11 C-14.99 10.67 -15.98 10.34 -17 10 C-14.73168576 7.39216102 -12.93592662 6.47215731 -9.625 5.5625 C-5.70462656 4.36016687 -3.03370035 2.83797775 0 0 Z " fill="#817F7F" transform="translate(49,48)"/>
<path d="M0 0 C0.33 0 0.66 0 1 0 C1.33 5.61 1.66 11.22 2 17 C1.34 16.67 0.68 16.34 0 16 C0 15.34 0 14.68 0 14 C-0.66 14 -1.32 14 -2 14 C-2.33 12.02 -2.66 10.04 -3 8 C-2.01 8 -1.02 8 0 8 C0 5.36 0 2.72 0 0 Z " fill="#EE3138" transform="translate(13,89)"/>
<path d="M0 0 C0 0.66 0 1.32 0 2 C-1.75 3.5078125 -1.75 3.5078125 -4 5.125 C-4.7425 5.66382813 -5.485 6.20265625 -6.25 6.7578125 C-6.8275 7.16773438 -7.405 7.57765625 -8 8 C-8.33 6.02 -8.66 4.04 -9 2 C-5.5647952 -0.29013653 -4.014669 -0.17842973 0 0 Z " fill="#7E7B7C" transform="translate(65,2)"/>
<path d="M0 0 C0 2 0 4 0 6 C-1.98 6.66 -3.96 7.32 -6 8 C-6.99 6.68 -7.98 5.36 -9 4 C-6.03 2.68 -3.06 1.36 0 0 Z " fill="#EE2E35" transform="translate(61,116)"/>
<path d="M0 0 C1.4540625 0.0309375 1.4540625 0.0309375 2.9375 0.0625 C2.9375 0.7225 2.9375 1.3825 2.9375 2.0625 C3.5975 2.3925 4.2575 2.7225 4.9375 3.0625 C4.15375 3.18625 3.37 3.31 2.5625 3.4375 C-0.20307822 3.85367993 -0.20307822 3.85367993 -2.0625 6.0625 C-3.0525 5.7325 -4.0425 5.4025 -5.0625 5.0625 C-3.9375 0.08035714 -3.9375 0.08035714 0 0 Z " fill="#2C2929" transform="translate(35.0625,100.9375)"/>
<path d="M0 0 C0.66 0 1.32 0 2 0 C2.309375 1.0209375 2.309375 1.0209375 2.625 2.0625 C4.21308645 5.45523013 6.27132353 7.67663934 8.85546875 10.3515625 C9.23316406 10.89554688 9.61085938 11.43953125 10 12 C9.67 12.99 9.34 13.98 9 15 C8.60167969 14.44570313 8.20335938 13.89140625 7.79296875 13.3203125 C7.26316406 12.59585937 6.73335938 11.87140625 6.1875 11.125 C5.66542969 10.40570313 5.14335938 9.68640625 4.60546875 8.9453125 C2.96727223 6.76971345 2.96727223 6.76971345 0 5 C-0.1875 2.375 -0.1875 2.375 0 0 Z " fill="#E7E3E3" transform="translate(60,19)"/>
<path d="M0 0 C0.33 0 0.66 0 1 0 C1.03738281 0.67546875 1.07476562 1.3509375 1.11328125 2.046875 C1.17902344 2.93890625 1.24476562 3.8309375 1.3125 4.75 C1.37050781 5.63171875 1.42851563 6.5134375 1.48828125 7.421875 C1.81542476 10.06394958 1.81542476 10.06394958 3.53125 12 C5.41895183 14.5704876 5.31172263 16.10302669 5.1875 19.25 C5.16042969 20.14203125 5.13335937 21.0340625 5.10546875 21.953125 C5.07066406 22.62859375 5.03585938 23.3040625 5 24 C4.67 24 4.34 24 4 24 C3.83723958 22.01432292 3.67447917 20.02864583 3.51171875 18.04296875 C3.18133162 15.90215812 3.18133162 15.90215812 1.46875 14.65625 C-0.82782245 12.06649809 -0.28760044 9.68254818 -0.1875 6.3125 C-0.16042969 5.13300781 -0.13335937 3.95351562 -0.10546875 2.73828125 C-0.07066406 1.83464844 -0.03585938 0.93101563 0 0 Z " fill="#E2DFDF" transform="translate(108,82)"/>
<path d="M0 0 C2.03144641 0.93446535 4.03533587 1.93224776 6 3 C5 6 5 6 3 8 C3 7.34 3 6.68 3 6 C2.34 6 1.68 6 1 6 C0.67 6.66 0.34 7.32 0 8 C-0.66 5.69 -1.32 3.38 -2 1 C-1.34 0.67 -0.68 0.34 0 0 Z " fill="#FAF9F9" transform="translate(80,78)"/>
<path d="M0 0 C5.15464734 0.48324819 8.81550319 3.18610761 13 6 C10.34501768 7.0169313 9.30844625 7.13022151 6.640625 6.00390625 C5.85171875 5.52824219 5.0628125 5.05257812 4.25 4.5625 C3.45078125 4.08941406 2.6515625 3.61632812 1.828125 3.12890625 C1.22484375 2.75636719 0.6215625 2.38382812 0 2 C0 1.34 0 0.68 0 0 Z " fill="#F6D6D7" transform="translate(51,63)"/>
<path d="M0 0 C-0.78697325 3.41021743 -1.87119943 6.68885166 -3 10 C-3.66 9.67 -4.32 9.34 -5 9 C-4.67 7.35 -4.34 5.7 -4 4 C-4.66 4 -5.32 4 -6 4 C-6 3.01 -6 2.02 -6 1 C-4 0 -4 0 0 0 Z " fill="#221F1F" transform="translate(52,97)"/>
<path d="M0 0 C1 2 1 2 0.0625 5.125 C-0.288125 6.07375 -0.63875 7.0225 -1 8 C-0.34 8.33 0.32 8.66 1 9 C-3.75 13 -3.75 13 -6 13 C-6 12.34 -6 11.68 -6 11 C-5.34 11 -4.68 11 -4 11 C-3.896875 9.9275 -3.79375 8.855 -3.6875 7.75 C-3.02599507 4.14179128 -2.42516579 2.63604977 0 0 Z " fill="#3D393A" transform="translate(56,10)"/>
<path d="M0 0 C2 1 2 1 3 3 C1.71827583 5.38665879 0.39712623 7.68520414 -1 10 C-1.6802367 11.32646156 -2.35492261 12.65608877 -3 14 C-4.37095624 10.30962722 -3.60010967 8.29116165 -2.0625 4.75 C-1.68222656 3.85796875 -1.30195312 2.9659375 -0.91015625 2.046875 C-0.60980469 1.37140625 -0.30945312 0.6959375 0 0 Z " fill="#333031" transform="translate(48,8)"/>
<path d="M0 0 C0.99 1.485 0.99 1.485 2 3 C4.16874252 2.49396008 5.99967627 2.00016187 8 1 C8 2.65 8 4.3 8 6 C5.07175348 6.97608217 3.04386724 7.08226668 0 7 C0 4.69 0 2.38 0 0 Z " fill="#F7F5F5" transform="translate(95,114)"/>
<path d="M0 0 C1.98 0.66 3.96 1.32 6 2 C5.67 3.32 5.34 4.64 5 6 C2.69 5.34 0.38 4.68 -2 4 C-1.34 2.68 -0.68 1.36 0 0 Z " fill="#802226" transform="translate(31,57)"/>
<path d="M0 0 C2.97 1.98 2.97 1.98 6 4 C5.67 5.32 5.34 6.64 5 8 C2 6.1875 2 6.1875 -1 4 C-1 1 -1 1 0 0 Z " fill="#F3F1F1" transform="translate(88,45)"/>
<path d="M0 0 C0.99 0.33 1.98 0.66 3 1 C3.1875 3.375 3.1875 3.375 3 6 C0 8 0 8 -3 8 C-2.5359375 7.13375 -2.5359375 7.13375 -2.0625 6.25 C-1.07416636 4.15705816 -0.4831387 2.25464725 0 0 Z " fill="#716F6F" transform="translate(57,17)"/>
<path d="M0 0 C0.66 0.33 1.32 0.66 2 1 C2.25 8.625 2.25 8.625 0 12 C-0.19573608 10.56359829 -0.38127816 9.12580496 -0.5625 7.6875 C-0.66691406 6.88699219 -0.77132813 6.08648437 -0.87890625 5.26171875 C-1 3 -1 3 0 0 Z " fill="#EDC6C8" transform="translate(8,86)"/>
<path d="M0 0 C0.66 0 1.32 0 2 0 C2.33 1.98 2.66 3.96 3 6 C0.50935112 6.68707555 -1.37886292 7 -4 7 C-2.68 4.69 -1.36 2.38 0 0 Z " fill="#EE2F36" transform="translate(71,103)"/>
<path d="M0 0 C2.38672669 2.96283313 4.7353371 5.94270509 7 9 C4 9 4 9 1.8125 7.3125 C-0.31050198 4.6038423 -0.37254569 3.35291118 0 0 Z " fill="#FDE5E6" transform="translate(19,105)"/>
<path d="M0 0 C0.66 0 1.32 0 2 0 C2 1.65 2 3.3 2 5 C2.66 5 3.32 5 4 5 C4 5.99 4 6.98 4 8 C2.68 8 1.36 8 0 8 C0 5.36 0 2.72 0 0 Z " fill="#F1F0F1" transform="translate(45,102)"/>
<path d="M0 0 C0.66 0 1.32 0 2 0 C4.29648649 2.5614657 5 3.47967572 5 7 C3.68 6.67 2.36 6.34 1 6 C0.67 4.02 0.34 2.04 0 0 Z " fill="#A3A1A1" transform="translate(35,15)"/>
<path d="M0 0 C0.99 0.33 1.98 0.66 3 1 C1.7508258 4.45925163 0.32472205 7.14693203 -2 10 C-2 6.09567131 -1.31626692 3.61973402 0 0 Z " fill="#FBD3D4" transform="translate(70,99)"/>
<path d="M0 0 C0 1.32 0 2.64 0 4 C-1.65 3.67 -3.3 3.34 -5 3 C-5 2.34 -5 1.68 -5 1 C-5.66 0.67 -6.32 0.34 -7 0 C-3.86650268 -1.04449911 -3.01031744 -0.93423645 0 0 Z " fill="#797778" transform="translate(43,100)"/>
<path d="M0 0 C1.32 0.66 2.64 1.32 4 2 C3.01 4.31 2.02 6.62 1 9 C-0.61949011 6.42786866 -1.04408751 5.32330841 -0.625 2.25 C-0.41875 1.5075 -0.2125 0.765 0 0 Z " fill="#EE272F" transform="translate(15,72)"/>
<path d="M0 0 C2.86724686 0.57344937 3.8614515 0.8614515 6 3 C5.67 3.66 5.34 4.32 5 5 C3.35 4.67 1.7 4.34 0 4 C0 2.68 0 1.36 0 0 Z " fill="#363233" transform="translate(87,54)"/>
<path d="M0 0 C0 0.33 0 0.66 0 1 C-1.670625 1.433125 -1.670625 1.433125 -3.375 1.875 C-7.00291092 2.69241329 -7.00291092 2.69241329 -9 5 C-11.125 4.625 -11.125 4.625 -13 4 C-8.48649253 0.47726246 -5.71658336 -0.45732667 0 0 Z " fill="#CDCCCC" transform="translate(53,52)"/>
<path d="M0 0 C1 3 1 3 -0.4375 6.1875 C-1.2109375 7.5796875 -1.2109375 7.5796875 -2 9 C-3.32 8.34 -4.64 7.68 -6 7 C-5.01 6.67 -4.02 6.34 -3 6 C-1.84478498 3.52869082 -1.84478498 3.52869082 -1 1 C-0.67 0.67 -0.34 0.34 0 0 Z " fill="#EDEAEA" transform="translate(43,8)"/>
<path d="M0 0 C1.32 0 2.64 0 4 0 C3.67 1.32 3.34 2.64 3 4 C1.35 4 -0.3 4 -2 4 C-1.34 2.68 -0.68 1.36 0 0 Z " fill="#EF363D" transform="translate(34,95)"/>
<path d="M0 0 C0.33 0 0.66 0 1 0 C1 2.64 1 5.28 1 8 C0.01 7.67 -0.98 7.34 -2 7 C-2.125 4.625 -2.125 4.625 -2 2 C-1.34 1.34 -0.68 0.68 0 0 Z " fill="#EC1A22" transform="translate(29,93)"/>
<path d="M0 0 C3.81684226 1.55500981 6.19195732 4.03595495 9 7 C8.01 7.495 8.01 7.495 7 8 C6.443125 7.38125 5.88625 6.7625 5.3125 6.125 C2.93354822 3.93893621 1.03642904 3.01214301 -2 2 C-1.34 1.34 -0.68 0.68 0 0 Z " fill="#353233" transform="translate(89,51)"/>
<path d="M0 0 C4.39158329 1.4638611 4.87947433 3.97831338 7 8 C6.01 8 5.02 8 4 8 C0 2.74285714 0 2.74285714 0 0 Z " fill="#E9E7E8" transform="translate(80,38)"/>
<path d="M0 0 C0.33 0.99 0.66 1.98 1 3 C1.99 2.67 2.98 2.34 4 2 C3.67 3.32 3.34 4.64 3 6 C1.68 6 0.36 6 -1 6 C-0.67 4.02 -0.34 2.04 0 0 Z " fill="#262323" transform="translate(107,113)"/>
<path d="M0 0 C0.33 0.99 0.66 1.98 1 3 C1.33 3.33 1.66 3.66 2 4 C2 4.99 2 5.98 2 7 C0.68 7.33 -0.64 7.66 -2 8 C-1.125 2.25 -1.125 2.25 0 0 Z " fill="#484445" transform="translate(99,110)"/>
<path d="M0 0 C0.66 0 1.32 0 2 0 C1.67 2.97 1.34 5.94 1 9 C0.01 8.67 -0.98 8.34 -2 8 C-2 7.01 -2 6.02 -2 5 C-1.34 5 -0.68 5 0 5 C0 3.35 0 1.7 0 0 Z " fill="#EEEEEE" transform="translate(55,99)"/>
<path d="M0 0 C0.99 0.33 1.98 0.66 3 1 C4.1875 4.0625 4.1875 4.0625 5 7 C4.01 7.495 4.01 7.495 3 8 C0 2.25 0 2.25 0 0 Z " fill="#EFEDED" transform="translate(85,84)"/>
<path d="M0 0 C2.0625 0.4375 2.0625 0.4375 4 1 C3.34 2.65 2.68 4.3 2 6 C1.01 6 0.02 6 -1 6 C-1 5.34 -1 4.68 -1 4 C-0.34 4 0.32 4 1 4 C1 3.34 1 2.68 1 2 C0.34 1.67 -0.32 1.34 -1 1 C-0.67 0.67 -0.34 0.34 0 0 Z " fill="#423E3F" transform="translate(63,47)"/>
<path d="M0 0 C0.33 0 0.66 0 1 0 C1 3.96 1 7.92 1 12 C0.67 12 0.34 12 0 12 C0 8.04 0 4.08 0 0 Z " fill="#FDFDFD" transform="translate(81,86)"/>
<path d="M0 0 C0.33 0 0.66 0 1 0 C1 3.63 1 7.26 1 11 C0.67 11 0.34 11 0 11 C0 7.37 0 3.74 0 0 Z " fill="#FDFDFD" transform="translate(115,99)"/>
<path d="M0 0 C0.33 0 0.66 0 1 0 C1 3.3 1 6.6 1 10 C0.67 10 0.34 10 0 10 C0 6.7 0 3.4 0 0 Z " fill="#FDFDFD" transform="translate(111,84)"/>
<path d="M0 0 C0.33 0 0.66 0 1 0 C1 3.3 1 6.6 1 10 C0.67 10 0.34 10 0 10 C0 6.7 0 3.4 0 0 Z " fill="#FDFDFD" transform="translate(34,23)"/>
<path d="M0 0 C0.33 0 0.66 0 1 0 C1 2.97 1 5.94 1 9 C0.67 9 0.34 9 0 9 C0 6.03 0 3.06 0 0 Z " fill="#FDFDFD" transform="translate(121,59)"/>
<path d="M0 0 C0.33 0 0.66 0 1 0 C1 1.98 1 3.96 1 6 C0.67 6 0.34 6 0 6 C0 4.02 0 2.04 0 0 Z " fill="#FEFEFE" transform="translate(5,89)"/>
<path d="M0 0 C0.33 0 0.66 0 1 0 C1 1.98 1 3.96 1 6 C0.67 6 0.34 6 0 6 C0 4.02 0 2.04 0 0 Z " fill="#FDFDFD" transform="translate(6,83)"/>
<path d="M0 0 C0.33 0 0.66 0 1 0 C1 1.65 1 3.3 1 5 C0.67 5 0.34 5 0 5 C0 3.35 0 1.7 0 0 Z " fill="#FDFDFD" transform="translate(6,95)"/>
<path d="M0 0 C1 4 1 4 1 4 Z " fill="#FDFDFD" transform="translate(116,110)"/>
<path d="M0 0 C1 4 1 4 1 4 Z " fill="#FDFDFD" transform="translate(96,105)"/>
<path d="M0 0 C1 4 1 4 1 4 Z " fill="#FDFDFD" transform="translate(80,98)"/>
<path d="M0 0 C0.99 0.495 0.99 0.495 2 1 C1.67 1.66 1.34 2.32 1 3 C0.67 2.01 0.34 1.02 0 0 Z " fill="#FDFDFD" transform="translate(104,59)"/>
<path d="M0 0 C1 4 1 4 1 4 Z " fill="#FDFDFD" transform="translate(33,33)"/>
<path d="M0 0 C1 4 1 4 1 4 Z " fill="#FEFEFE" transform="translate(63,19)"/>
<path d="M0 0 C1 4 1 4 1 4 Z " fill="#FEFEFE" transform="translate(31,14)"/>
<path d="M0 0 C3 1 3 1 3 1 Z " fill="#FEFEFE" transform="translate(54,127)"/>
<path d="M0 0 C3 1 3 1 3 1 Z " fill="#FEFEFE" transform="translate(97,121)"/>
<path d="" fill="#FDFDFD" transform="translate(0,0)"/>
<path d="" fill="#FDFDFD" transform="translate(0,0)"/>
<path d="" fill="#FDFDFD" transform="translate(0,0)"/>
<path d="" fill="#FDFDFD" transform="translate(0,0)"/>
<path d="" fill="#FDFDFD" transform="translate(0,0)"/>
<path d="" fill="#FDFDFD" transform="translate(0,0)"/>
<path d="" fill="#FDFDFD" transform="translate(0,0)"/>
<path d="" fill="#FDFDFD" transform="translate(0,0)"/>
<path d="" fill="#FDFDFD" transform="translate(0,0)"/>
<path d="M0 0 C0.33 0.66 0.66 1.32 1 2 C0.34 1.67 -0.32 1.34 -1 1 C-0.67 0.67 -0.34 0.34 0 0 Z " fill="#FDFDFD" transform="translate(116,73)"/>
<path d="M0 0 C0.99 0.495 0.99 0.495 2 1 C1.01 1.495 1.01 1.495 0 2 C0 1.34 0 0.68 0 0 Z " fill="#FDFDFD" transform="translate(29,54)"/>
<path d="" fill="#FEFEFE" transform="translate(0,0)"/>
<path d="" fill="#FDFDFD" transform="translate(0,0)"/>
<path d="" fill="#FDFDFD" transform="translate(0,0)"/>
<path d="M0 0 C3 1 3 1 3 1 Z " fill="#FDFDFD" transform="translate(49,0)"/>
<path d="M0 0 C2 1 2 1 2 1 Z " fill="#FDFDFD" transform="translate(57,126)"/>
<path d="M0 0 C2 1 2 1 2 1 Z " fill="#FDFDFD" transform="translate(59,125)"/>
<path d="" fill="#FDFDFD" transform="translate(0,0)"/>
<path d="" fill="#FEFEFE" transform="translate(0,0)"/>
<path d="" fill="#FEFEFE" transform="translate(0,0)"/>
<path d="" fill="#FEFEFE" transform="translate(0,0)"/>
<path d="" fill="#FDFDFD" transform="translate(0,0)"/>
<path d="" fill="#FDFDFD" transform="translate(0,0)"/>
<path d="" fill="#FEFEFE" transform="translate(0,0)"/>
<path d="" fill="#FEFEFE" transform="translate(0,0)"/>
<path d="" fill="#FDFDFD" transform="translate(0,0)"/>
<path d="" fill="#FDFDFD" transform="translate(0,0)"/>
<path d="" fill="#FDFDFD" transform="translate(0,0)"/>
<path d="" fill="#FDFDFD" transform="translate(0,0)"/>
<path d="" fill="#FEFEFE" transform="translate(0,0)"/>
<path d="" fill="#FDFDFD" transform="translate(0,0)"/>
<path d="" fill="#FEFEFE" transform="translate(0,0)"/>
<path d="" fill="#FDFDFD" transform="translate(0,0)"/>
<path d="" fill="#FDFDFD" transform="translate(0,0)"/>
<path d="" fill="#FEFEFE" transform="translate(0,0)"/>
<path d="M0 0 C2 1 2 1 2 1 Z " fill="#FDFDFD" transform="translate(31,53)"/>
<path d="M0 0 C2 1 2 1 2 1 Z " fill="#FDFDFD" transform="translate(33,52)"/>
<path d="" fill="#FDFDFD" transform="translate(0,0)"/>
<path d="" fill="#FEFEFE" transform="translate(0,0)"/>
<path d="" fill="#FDFDFD" transform="translate(0,0)"/>
<path d="" fill="#FDFDFD" transform="translate(0,0)"/>
<path d="M0 0 C2 1 2 1 2 1 Z " fill="#FEFEFE" transform="translate(76,33)"/>
<path d="" fill="#FEFEFE" transform="translate(0,0)"/>
<path d="" fill="#FEFEFE" transform="translate(0,0)"/>
<path d="" fill="#FDFDFD" transform="translate(0,0)"/>
<path d="" fill="#FEFEFE" transform="translate(0,0)"/>
<path d="" fill="#FEFEFE" transform="translate(0,0)"/>
<path d="" fill="#FEFEFE" transform="translate(0,0)"/>
<path d="" fill="#FEFEFE" transform="translate(0,0)"/>
<path d="" fill="#FEFEFE" transform="translate(0,0)"/>
<path d="" fill="#FEFEFE" transform="translate(0,0)"/>
<path d="" fill="#FDFDFD" transform="translate(0,0)"/>
<path d="" fill="#FEFEFE" transform="translate(0,0)"/>
<path d="" fill="#FEFEFE" transform="translate(0,0)"/>
<path d="" fill="#FEFEFE" transform="translate(0,0)"/>
<path d="" fill="#FEFEFE" transform="translate(0,0)"/>
<path d="" fill="#FEFEFE" transform="translate(0,0)"/>
<path d="" fill="#FDFDFD" transform="translate(0,0)"/>
<path d="" fill="#FEFEFE" transform="translate(0,0)"/>
<path d="" fill="#FEFEFE" transform="translate(0,0)"/>
<path d="" fill="#FDFDFD" transform="translate(0,0)"/>
<path d="" fill="#FEFEFE" transform="translate(0,0)"/>
<path d="" fill="#FDFDFD" transform="translate(0,0)"/>
<path d="" fill="#FEFEFE" transform="translate(0,0)"/>
<path d="" fill="#FDFDFD" transform="translate(0,0)"/>
<path d="" fill="#FDFDFD" transform="translate(0,0)"/>
<path d="" fill="#FEFEFE" transform="translate(0,0)"/>
<path d="" fill="#FEFEFE" transform="translate(0,0)"/>
<path d="" fill="#FEFEFE" transform="translate(0,0)"/>
<path d="" fill="#FEFEFE" transform="translate(0,0)"/>
<path d="" fill="#FEFEFE" transform="translate(0,0)"/>
<path d="" fill="#FEFEFE" transform="translate(0,0)"/>
<path d="" fill="#FEFEFE" transform="translate(0,0)"/>
<path d="" fill="#FDFDFD" transform="translate(0,0)"/>
<path d="" fill="#FEFEFE" transform="translate(0,0)"/>
<path d="" fill="#FEFEFE" transform="translate(0,0)"/>
<path d="" fill="#FDFDFD" transform="translate(0,0)"/>
<path d="" fill="#FDFDFD" transform="translate(0,0)"/>
<path d="" fill="#FDFDFD" transform="translate(0,0)"/>
<path d="" fill="#FEFEFE" transform="translate(0,0)"/>
<path d="" fill="#FEFEFE" transform="translate(0,0)"/>
<path d="" fill="#FEFEFE" transform="translate(0,0)"/>
<path d="" fill="#FEFEFE" transform="translate(0,0)"/>
<path d="" fill="#FEFEFE" transform="translate(0,0)"/>
<path d="" fill="#FEFEFE" transform="translate(0,0)"/>
<path d="" fill="#FDFDFD" transform="translate(0,0)"/>
<path d="" fill="#FDFDFD" transform="translate(0,0)"/>
<path d="" fill="#FEFEFE" transform="translate(0,0)"/>
<path d="" fill="#FEFEFE" transform="translate(0,0)"/>
<path d="" fill="#FEFEFE" transform="translate(0,0)"/>
<path d="" fill="#FDFDFD" transform="translate(0,0)"/>
<path d="" fill="#FDFDFD" transform="translate(0,0)"/>
<path d="" fill="#FDFDFD" transform="translate(0,0)"/>
<path d="" fill="#FDFDFD" transform="translate(0,0)"/>
<path d="" fill="#FEFEFE" transform="translate(0,0)"/>
<path d="" fill="#FDFDFD" transform="translate(0,0)"/>
<path d="" fill="#FEFEFE" transform="translate(0,0)"/>
<path d="" fill="#FEFEFE" transform="translate(0,0)"/>
<path d="" fill="#FDFDFD" transform="translate(0,0)"/>
<path d="" fill="#FDFDFD" transform="translate(0,0)"/>
<path d="" fill="#FDFDFD" transform="translate(0,0)"/>
<path d="" fill="#FEFEFE" transform="translate(0,0)"/>
<path d="" fill="#FDFDFD" transform="translate(0,0)"/>
<path d="" fill="#FDFDFD" transform="translate(0,0)"/>
<path d="" fill="#FEFEFE" transform="translate(0,0)"/>
<path d="" fill="#FEFEFE" transform="translate(0,0)"/>
<path d="" fill="#FDFDFD" transform="translate(0,0)"/>
<path d="" fill="#FEFEFE" transform="translate(0,0)"/>
<path d="" fill="#FEFEFE" transform="translate(0,0)"/>
<path d="" fill="#FEFEFE" transform="translate(0,0)"/>
<path d="" fill="#FEFEFE" transform="translate(0,0)"/>
<path d="" fill="#FDFDFD" transform="translate(0,0)"/>
<path d="" fill="#FDFDFD" transform="translate(0,0)"/>
<path d="" fill="#FEFEFE" transform="translate(0,0)"/>
<path d="" fill="#FDFDFD" transform="translate(0,0)"/>
<path d="" fill="#FEFEFE" transform="translate(0,0)"/>
<path d="" fill="#FEFEFE" transform="translate(0,0)"/>
<path d="" fill="#FEFEFE" transform="translate(0,0)"/>
<path d="" fill="#FDFDFD" transform="translate(0,0)"/>
<path d="" fill="#FEFEFE" transform="translate(0,0)"/>
<path d="" fill="#FEFEFE" transform="translate(0,0)"/>
<path d="" fill="#FDFDFD" transform="translate(0,0)"/>
<path d="" fill="#FDFDFD" transform="translate(0,0)"/>
<path d="" fill="#FEFEFE" transform="translate(0,0)"/>
</svg>
